<?xml version="1.0" standalone="no"?>
<!DOCTYPE svg PUBLIC "-//W3C//DTD SVG 1.1//EN" "http://www.w3.org/Graphics/SVG/1.1/DTD/svg11.dtd">
<svg xmlns="http://www.w3.org/2000/svg">
<metadata>Copyright (C) 2016 by original authors @ fontello.com</metadata>
<defs>
<font id="gtfont" horiz-adv-x="1000" >
<font-face font-family="gtfont" font-weight="400" font-stretch="normal" units-per-em="1000" ascent="850" descent="-150" />
<missing-glyph horiz-adv-x="1000" />
<glyph glyph-name="th-list" unicode="&#xe800;" d="m0-150l0 250 250 0 0-250-250 0z m0 375l0 250 250 0 0-250-250 0z m0 375l0 250 250 0 0-250-250 0z m391-750l0 250 609 0 0-250-609 0z m0 375l0 250 609 0 0-250-609 0z m0 375l0 250 609 0 0-250-609 0z" horiz-adv-x="1000" />
<glyph glyph-name="glass" unicode="&#xe801;" d="m0 811l1000 0-420-420 0-412 156 0 0-90-470 0 0 90 154 0 0 412z" horiz-adv-x="1000" />
<glyph glyph-name="music" unicode="&#xe802;" d="m1-16q-8 57 38 103t118 57q64 10 119-17l25 652 690 53q-32-727-34-756-1-51-45-91t-109-50q-72-10-129 22t-64 89 37 105 117 58q68 9 125-22l25 465-539-55-5-131q-6-131-12-277t-8-176l0-6q-6-50-49-89t-107-47q-70-10-127 23t-66 90z" horiz-adv-x="991" />
<glyph glyph-name="search" unicode="&#xe803;" d="m0 8l186 186 2 0q-67 105-67 228 0 178 125 303t303 125 303-125 125-303-125-302-303-125q-106 0-197 48l-194-193z m311 415q0-98 70-168t168-69 168 69 70 168-70 168-168 70-168-70-70-168z" horiz-adv-x="977" />
<glyph glyph-name="search-circled" unicode="&#xe804;" d="m0 350q0 207 147 354t353 146 354-146 146-354-146-354-354-146-353 146-147 354z m223-193l90-90 109 109q53-27 113-27 100 0 171 71t71 171-71 171-172 71-171-71-70-171q0-70 37-129l-2 0z m177 234q0 57 39 96t95 39 95-39 39-96-39-96-95-39-95 39-39 96z" horiz-adv-x="1000" />
<glyph glyph-name="mail" unicode="&#xe805;" d="m0-29l324 342 176-100 176 100 324-342-1000 0z m0 114l0 414 254-147z m0 503l0 141 1000 0 0-141-500-285z m746-236l254 147 0-414z" horiz-adv-x="1000" />
<glyph glyph-name="mail-circled" unicode="&#xe806;" d="m0 350q0 207 147 354t353 146 354-146 146-354-146-354-354-146-353 146-147 354z m244-193l512 0-166 174-90-51-90 51z m0 58l131 137-131 74 0-211z m0 256l256-144 256 144 0 72-512 0 0-72z m381-119l131-137 0 211z" horiz-adv-x="1000" />
<glyph glyph-name="heart" unicode="&#xe807;" d="m1 532q7 111 75 183 94 80 212 70t190-98q38 49 92 79 113 43 217 3t150-140q30-106 10-199t-78-174q-68-94-174-184-53-49-124-103t-93-57q-13 2-28 12t-35 25-24 20q-264 199-348 357-49 96-42 206z" horiz-adv-x="955" />
<glyph glyph-name="heart-circled" unicode="&#xe808;" d="m0 350q0 207 147 354t353 146 354-146 146-354-146-354-354-146-353 146-147 354z m242 76q-4-60 22-111 47-86 189-195 2-2 13-11t18-14 16-5q27 2 119 86 57 49 94 100 70 96 37 203-20 41-57 63t-82 23q-31 0-60-12-29-15-51-43-39 49-103 54t-114-40q-37-37-41-98z" horiz-adv-x="1000" />
<glyph glyph-name="heart-empty" unicode="&#xe809;" d="m1 521q7 115 79 191l2 0 2 2q88 76 199 76t191-70q32 27 67 45l2 2 2 0q56 23 117 23 88 2 161-44t110-124l0-2 2-3q30-106 10-202t-80-175q-62-88-162-172 0-2-2-2-49-45-107-90-34-25-59-41-33-23-55-23l-6-2-5 2q-28 3-59 29-10 6-21 16t-16 13l-2 0q-246 188-328 340l0 2q-49 94-42 209z m85-10q-6-86 33-162 74-135 303-310l2 0q6-6 18-16t19-14q8-6 15-10 8 2 14 6 22 14 51 37 58 43 105 88 94 80 151 161 107 142 58 298-27 57-78 88t-113 29q-43 0-86-17-39-22-68-57l-32-43-35 43q-52 65-141 72t-161-52q-49-55-55-141z" horiz-adv-x="953" />
<glyph glyph-name="star" unicode="&#xe80a;" d="m0 471l379-2 125 360 117-364 379-8-309-220 110-366-307 225-310-215 119 360z" horiz-adv-x="1000" />
<glyph glyph-name="star-circled" unicode="&#xe80b;" d="m0 350q0 207 147 354t353 146 354-146 146-354-146-354-354-146-353 146-147 354z m160 82l205-156-80-246 211 148 209-152-74 246 209 152-258 4-78 246-86-242-258 0z" horiz-adv-x="1000" />
<glyph glyph-name="star-empty" unicode="&#xe80c;" d="m0 471l94 0 285-2 96 270 29 90 29-92 88-272 285-6 94-2-76-54-233-166 82-274 28-91-76 56-231 168-232-162-78-53 29 90 90 270-227 174z m189-64l168-129 20-14-8-21-66-203 176 123 17 11 18-13 172-125-61 203-6 21 18 14 174 125-215 4-22 2-8 21-64 201-70-199-8-21-235 0z" horiz-adv-x="1000" />
<glyph glyph-name="user" unicode="&#xe80d;" d="m0-150l0 156q0 24 58 58t159 71q99 35 137 73t37 101q0 29-27 72t-32 59q-12 35-29 135-10 52-14 93-2 22 6 50t28 60 67 51 110 21 110-21 67-51 28-60 6-50q-4-41-14-93-17-100-29-135-6-16-32-59t-27-72q0-64 37-101t137-73q217-80 217-129l0-156-1000 0z" horiz-adv-x="1000" />
<glyph glyph-name="group" unicode="&#xe80e;" d="m0 106l0 134q0 26 18 32l171 80q-66 39-68 131 0 56 35 103 37 41 90 43 31 0 63-19-49-125 23-237-12-11-25-19l-114-55q-48-23-52-84l0-143-114 0q-25 0-27 34z m193-59l0 168q0 27 22 37l152 70 57 28q-37 23-60 66t-22 94q0 76 46 130t110 54 109-54 45-130q0-106-78-158l61-30 146-70q24-10 24-37l0-168q-2-37-37-41l-541 0q-14 2-24 14t-10 27z m473 330q68 106 22 231 31 19 66 21 49 0 90-43 35-41 35-103 0-82-65-131l168-80q18-10 18-32l0-134q0-32-27-34l-118 0 0 143q0 57-50 84l-110 53q-15 8-29 25z" horiz-adv-x="1000" />
<glyph glyph-name="group-circled" unicode="&#xe80f;" d="m0 350q0 207 147 354t353 146 354-146 146-354-146-354-354-146-353 146-147 354z m178-158q0-22 17-22l73 0 0 92q0 18 8 32t25 23l74 35q10 6 16 14-12 17-20 41t-8 49q0 15 4 31t10 29q-20 14-41 14-37-2-59-31t-21-63q2-61 43-86l-111-51q-10-6-10-19l0-88z m123-22q-2-41 23-43l350 0q12 4 16 12t5 13l0 110q0 18-13 24l-94 47-41 19q37 22 49 74 8 30 0 61-10 35-36 59t-62 27q-35-2-60-27t-36-57q-11-45 8-92 16-29 41-47l-37-18-98-45q-15-7-15-25l0-92z m306 196q8-8 20-16t21-12 26-10 23-11q16-8 25-23t8-32l0-92 75 0q17 2 17 22l0 88q0 13-10 19l-109 53q41 29 41 84 0 37-23 65t-57 29q-21 0-43-14 12-29 12-60 0-49-26-90z" horiz-adv-x="1000" />
<glyph glyph-name="torso" unicode="&#xe810;" d="m0-150l0 358 338 144q-61 37-92 101t-31 133q0 104 64 184t162 80q102-4 164-83t63-181q-2-74-33-136t-86-98l334-145 0-357-883 0z" horiz-adv-x="883" />
<glyph glyph-name="video" unicode="&#xe811;" d="m0-29l0 758 1000 0 0-758-1000 0z m123 123l754 0 0 512-754 0 0-512z m266 82l0 340 293-170z" horiz-adv-x="1000" />
<glyph glyph-name="video-circled" unicode="&#xe812;" d="m0 350q0 207 147 354t353 146 354-146 146-354-146-354-354-146-353 146-147 354z m201-226l598 0 0 453-598 0 0-453z m74 74l0 304 450 0 0-304-450 0z m159 49l175 101-175 102 0-203z" horiz-adv-x="1000" />
<glyph glyph-name="video-alt" unicode="&#xe813;" d="m0-150l0 1000 883 0 0-1000-883 0z m45 119l109 0 0 82-109 0 0-82z m0 184l109 0 0 84-109 0 0-84z m0 185l109 0 0 82-109 0 0-82z m0 186l109 0 0 82-109 0 0-82z m0 183l109 0 0 83-109 0 0-83z m156-826l481 0 0 436-481 0 0-436z m0 467l481 0 0 436-481 0 0-436z m528-379l109 0 0 82-109 0 0-82z m0 184l109 0 0 84-109 0 0-84z m0 185l109 0 0 82-109 0 0-82z m0 186l109 0 0 82-109 0 0-82z m0 183l109 0 0 83-109 0 0-83z" horiz-adv-x="883" />
<glyph glyph-name="videocam" unicode="&#xe814;" d="m0-37l0 774 775 0 0-325 225 325 0-774-225 324 0-324-775 0z" horiz-adv-x="1000" />
<glyph glyph-name="help" unicode="&#xe815;" d="m0 704q2 48 85 97t147 49q122 0 192-72 66-69 66-162 0-49-10-79t-44-83q-4-8-59-76t-77-119-13-104l-94 2q-29 66-26 131t28 119q14 31 40 74t40 74q20 45-13 89t-76 44q-39 0-60-15t-34-48l-76 0q-22 12-16 79z m123-741q0 47 33 80t80 34 80-34 34-80-34-80-80-33-80 33-33 80z" horiz-adv-x="490" />
<glyph glyph-name="minus-circled" unicode="&#xe816;" d="m0 350q0 207 147 354t353 146 354-146 146-354-146-354-354-146-353 146-147 354z m213-82l574 0 0 164-574 0 0-164z" horiz-adv-x="1000" />
<glyph glyph-name="minus" unicode="&#xe817;" d="m0 209l0 282 1000 0 0-282-1000 0z" horiz-adv-x="1000" />
<glyph glyph-name="plus-circled" unicode="&#xe818;" d="m0 350q0 207 147 354t353 146 354-146 146-354-146-354-354-146-353 146-147 354z m219-80l201 0 0-201 160 0 0 201 201 0 0 160-201 0 0 201-160 0 0-201-201 0 0-160z" horiz-adv-x="1000" />
<glyph glyph-name="plus" unicode="&#xe819;" d="m0 209l0 282 359 0 0 359 282 0 0-359 359 0 0-282-359 0 0-359-282 0 0 359-359 0z" horiz-adv-x="1000" />
<glyph glyph-name="cancel-circled2" unicode="&#xe81a;" d="m0 350q0 207 147 354t353 146 354-146 146-354-146-354-354-146-353 146-147 354z m109 0q0-162 115-276t276-115 276 115 115 276-115 276-276 115-276-115-115-276z m145-137l137 137-137 137 109 109 137-137 137 137 109-109-137-137 137-137-109-109-137 137-137-137z" horiz-adv-x="1000" />
<glyph glyph-name="cancel-circled" unicode="&#xe81b;" d="m0 350q0 207 147 354t353 146 354-146 146-354-146-354-354-146-353 146-147 354z m219-156l125-125 156 156 156-156 125 125-156 156 156 156-125 125-156-156-156 156-125-125 156-156z" horiz-adv-x="1000" />
<glyph glyph-name="cancel" unicode="&#xe81c;" d="m0 71l279 279-279 279 221 221 279-279 279 279 221-221-279-279 279-279-221-221-279 279-279-279z" horiz-adv-x="1000" />
<glyph glyph-name="ok-circled2" unicode="&#xe81d;" d="m0 350q0 207 147 354t353 146 354-146 146-354-146-354-354-146-353 146-147 354z m109 0q0-162 115-276t276-115 276 115 115 276-115 276-276 115-276-115-115-276z m106-51l94 92 93-94 289 291 94-93-291-290-92-93-93 93z" horiz-adv-x="1000" />
<glyph glyph-name="ok-circled" unicode="&#xe81e;" d="m0 350q0 207 147 354t353 146 354-146 146-354-146-354-354-146-353 146-147 354z m182-57l105-105 104-104 103 104 324 324-103 104-324-325-106 106z" horiz-adv-x="1000" />
<glyph glyph-name="ok" unicode="&#xe81f;" d="m0 260l162 162 166-164 508 510 164-164-510-510-162-162-162 164z" horiz-adv-x="1000" />
<glyph glyph-name="view-mode" unicode="&#xe820;" d="m0-76l926 926 74-74-926-926z m0 410l0 235 234 0 0-235-234 0z m0 280l0 234 234 0 0-234-234 0z m275-280l0 235 235 0z m0 280l0 234 235 0 0-234-235 0z m237-762l0 131 488 0 0-131-488 0z m0 168l0 131 488 0 0-131-488 0z m31 168l145 131 312 0 0-131-457 0z" horiz-adv-x="1000" />
<glyph glyph-name="th" unicode="&#xe821;" d="m0-150l0 250 250 0 0-250-250 0z m0 375l0 250 250 0 0-250-250 0z m0 375l0 250 250 0 0-250-250 0z m375-750l0 250 250 0 0-250-250 0z m0 375l0 250 250 0 0-250-250 0z m0 375l0 250 250 0 0-250-250 0z m375-750l0 250 250 0 0-250-250 0z m0 375l0 250 250 0 0-250-250 0z m0 375l0 250 250 0 0-250-250 0z" horiz-adv-x="1000" />
<glyph glyph-name="th-large" unicode="&#xe822;" d="m0-150l0 438 438 0 0-438-438 0z m0 563l0 437 438 0 0-437-438 0z m563-563l0 438 437 0 0-438-437 0z m0 563l0 437 437 0 0-437-437 0z" horiz-adv-x="1000" />
<glyph glyph-name="photo-circled" unicode="&#xe823;" d="m0 350q0 207 147 354t353 146 354-146 146-354-146-354-354-146-353 146-147 354z m232-254l536 0 0 508-536 0 0-508z m67 166l0 278 402 0 0-278-402 0z" horiz-adv-x="1000" />
<glyph glyph-name="photo" unicode="&#xe824;" d="m0-125l0 950 1000 0 0-950-1000 0z m123 309l754 0 0 521-754 0 0-521z" horiz-adv-x="1000" />
<glyph glyph-name="camera" unicode="&#xe825;" d="m0-27l0 627 295 0 31 127 362 0 31-127 281 0 0-627-1000 0z m221 346q0-117 83-199t199-82 198 82 82 199-82 199-198 82-199-82-83-199z m84 0q0 82 57 140t140 59 141-59 58-140-58-140-141-57-140 57-57 140z m527 139l143 0 0 82-143 0 0-82z" horiz-adv-x="1000" />
<glyph glyph-name="picture" unicode="&#xe826;" d="m0-68l0 836 1000 0 0-836-1000 0z m76 78l848 0 0 680-848 0 0-680z m90 80l0 59 150 195 102-86 193 291 223-228 0-231-668 0z m0 416q0 37 24 62t62 24q33 0 58-24t24-62q0-33-24-57t-58-25q-37 0-62 25t-24 57z" horiz-adv-x="1000" />
<glyph glyph-name="video-chat" unicode="&#xe827;" d="m0 96l0 713 1000 0 0-713-473 0-320-205 0 205-207 0z m219 201l402 0 0 125 160-125 0 332-160-123 0 123-402 0 0-332z" horiz-adv-x="1000" />
<glyph glyph-name="help-circled" unicode="&#xe828;" d="m0 350q0 207 147 354t353 146 354-146 146-354-146-354-354-146-353 146-147 354z m316 264q-3-49 12-57l57 0q21 47 70 45 33 0 58-32t10-66q-9-23-29-55t-31-56q-20-41-21-90t21-97l70-2q-8 41 9 79t58 89 45 56q25 39 32 62t7 59q0 71-49 121-53 55-145 55-47 0-109-37t-65-74z m94-553q0-35 25-61t59-25 61 25 25 61-25 60-61 24-59-24-25-60z" horiz-adv-x="1000" />
<glyph glyph-name="info-circled" unicode="&#xe829;" d="m0 350q0 207 147 354t353 146 354-146 146-354-146-354-354-146-353 146-147 354z m373 66l8-39 35 8q25 0 25-35l0-244q0-20-13-29-18-12-53-20l8-35q84 8 118 8t118-8l8 35q-35 10-53 20-10 6-11 11-2 4-2 18l0 240q0 49 15 90l-19 23q-32 0-90-13t-94-30z m35 195q0-30 20-50 21-18 56-18t57 19 22 49-22 49-57 18-56-17q-20-20-20-50z" horiz-adv-x="1000" />
<glyph glyph-name="home" unicode="&#xe82a;" d="m0-150l0 649 453 351 453-351 0-649-312 0 0 391-281 0 0-391-313 0z" horiz-adv-x="906" />
<glyph glyph-name="home-circled" unicode="&#xe82b;" d="m0 350q0 207 147 354t353 146 354-146 146-354-146-354-354-146-353 146-147 354z m256-269l168 0 0 210 152 0 0-210 168 0 0 349-244 190-244-190 0-349z" horiz-adv-x="1000" />
<glyph glyph-name="website" unicode="&#xe82c;" d="m0-119l0 938 1000 0 0-938-1000 0z m123 123l754 0 0 692-754 0 0-692z m82 78l0 166 166 0 0-166-166 0z m0 219l0 307 588 0 0-307-588 0z m211-219l0 166 166 0 0-166-166 0z m211 0l0 166 166 0 0-166-166 0z" horiz-adv-x="1000" />
<glyph glyph-name="website-circled" unicode="&#xe82d;" d="m0 350q0 207 147 354t353 146 354-146 146-354-146-354-354-146-353 146-147 354z m234-248l532 0 0 496-532 0 0-496z m67 64l0 368 400 0 0-368-400 0z m43 42l88 0 0 87-88 0 0-87z m0 117l312 0 0 162-312 0 0-162z m111-117l88 0 0 87-88 0 0-87z m111 0l90 0 0 87-90 0 0-87z" horiz-adv-x="1000" />
<glyph glyph-name="attach" unicode="&#xe82e;" d="m0 65q8 68 67 127l383 383q117 115 211 33 84-86-36-209l-353-351-66 70 349 349q2 0 8 6l8 8t7 9 6 10 6 9 4 11l0 10t-2 12q-19 17-74-37l-381-381q-37-35-41-69-4-39 35-78 41-33 70-28t71 46q82 80 218 215t194 195q2 2 18 17t17 17 15 16 15 17 12 17 13 19 11 20 10 25q16 57-33 123t-115 75q-68 7-152-73l-418-418-69 67 418 420q98 95 199 100t190-83q105-107 74-236-19-74-94-151-86-83-246-244l-209-209q-70-70-150-72-68 0-125 57-70 70-64 156z" horiz-adv-x="896" />
<glyph glyph-name="attach-circled" unicode="&#xe82f;" d="m0 350q0 207 147 354t353 146 354-146 146-354-146-354-354-146-353 146-147 354z m219-180q-4-52 41-97 35-35 78-35 51 2 96 45 29 31 129 131t156 154q45 48 58 93 20 82-47 149-52 53-111 53l-8 0q-62-2-125-63l-261-264 43-43 261 262q53 51 96 47 43-6 73-47t21-78q-4-6-6-13t-6-12-7-10-8-10-6-10-9-9-9-9-10-10-10-9l-122-122-135-136q-28-25-46-28t-44 17q-24 25-22 49 2 21 26 43l240 240q33 33 45 23 8-17-22-47l-220-220 43-43 220 220q75 76 24 131-61 51-133-21l-240-241q-37-37-43-80z" horiz-adv-x="1000" />
<glyph glyph-name="lock" unicode="&#xe830;" d="m0-150l0 578 139 0q-2 166 25 231 39 88 116 139t169 52q94 0 172-54t115-137q26-59 26-122l0-109 150 0 0-578-912 0z m322 578l256 0 0 112q-2 52-38 88t-91 38q-52 2-87-34t-40-94l0-110z" horiz-adv-x="912" />
<glyph glyph-name="lock-circled" unicode="&#xe831;" d="m0 350q0 207 147 354t353 146 354-146 146-354-146-354-354-146-353 146-147 354z m252-271l496 0 0 314-82 0 0 59q0 33-14 66-19 45-62 74t-94 30-92-29-62-75q-16-35-14-125l-76 0 0-314z m176 314l0 59q2 31 19 49t45 21l4 0q29-2 49-22t21-48l0-59-138 0z" horiz-adv-x="1000" />
<glyph glyph-name="lock-open" unicode="&#xe832;" d="m0-150l0 559 152 0 0 138q2 127 88 215 41 39 96 64t119 24q123-2 211-88 86-88 90-209l-178 0q-2 47-37 82-37 35-86 37-53-2-88-37-37-39-37-88l0-138 553 0 0-559-883 0z" horiz-adv-x="883" />
<glyph glyph-name="lock-open-alt" unicode="&#xe833;" d="m0 350q0 207 147 354t353 146 354-146 146-354-146-354-354-146-353 146-147 354z m258-225l484 0 0 305-303 0 0 78q0 28 20 47t49 20q27 2 46-17t20-48l98 0q-2 67-50 116t-114 46q-70-2-115-48t-51-116l0-78-84 0 0-305z" horiz-adv-x="1000" />
<glyph glyph-name="eye" unicode="&#xe834;" d="m0 350q6 49 64 110 79 80 176 129 129 60 260 60 137-2 260-60 103-53 176-129 64-73 64-110-6-49-64-109-79-80-176-129-129-61-260-61-137 2-260 61-103 53-176 129-64 72-64 109z m264 0q0-94 69-159t167-65 167 65 69 159-69 159-167 66-167-66-69-159z m86 1q0 60 44 102t106 42 106-42 44-102-44-102-106-43-106 43-44 102z" horiz-adv-x="1000" />
<glyph glyph-name="eye-off" unicode="&#xe835;" d="m0 326q6 49 64 110 79 80 176 128 129 61 260 61 29 0 59-2l74 129q10 16 23 18 4 0 8-2l51-32q17-7 2-33l-57-102-47-78-41-72-144-250-41-72-47-80-57-100q-15-25-31-15l-53 31q-15 8 0 33l49 86-8 4q-103 53-176 129-64 72-64 109z m264 0q0-74 47-133l48 84q-9 24-9 49 0 51 34 91t85 50l49 84-18 0q-98 0-167-66t-69-159z m177-295l41 71 18 0q98 0 167 65t69 159q0 74-47 133l63 109q2-2 4-3t4-1q103-52 176-129 64-72 64-109-6-49-64-109-79-80-176-129-129-61-260-61-25 0-59 4z m90 155l110 189q9-25 9-49 0-51-34-90t-85-50z" horiz-adv-x="1000" />
<glyph glyph-name="tag" unicode="&#xe836;" d="m0 483l0 287q2 31 24 54t52 22l287 0q88-6 133-55l426-472q19-28 19-58t-19-52l-334-334q-25-21-57-21t-52 21l-424 475q-55 64-55 133z m125 164q2-31 23-52t51-20q32 0 52 22t21 50q0 33-23 54t-50 20q-33-2-53-23t-21-51z" horiz-adv-x="941" />
<glyph glyph-name="tags" unicode="&#xe837;" d="m0 460l0 240q2 27 21 46t43 19l241 0q43 0 88-28l377-414q17-23 17-48t-17-44l-280-277q-21-18-47-18t-43 18l-355 397q-45 54-45 109z m104 138q0-25 17-42 22-20 46-19t42 19q18 19 18 44t-18 43q-20 18-45 17t-43-17q-17-21-17-45z m316 165l92 0q72-4 109-45l356-397q17-21 17-48t-17-44l-280-277q-60-35-95 8l271 271q18 22 18 47t-18 45l-318 356q-24 31-71 56t-64 28z" horiz-adv-x="994" />
<glyph glyph-name="bookmark" unicode="&#xe838;" d="m0-56l0 906 609 0 0-1000-304 305-305-305 0 94z" horiz-adv-x="609" />
<glyph glyph-name="bookmark-empty" unicode="&#xe839;" d="m0-56l0 906 609 0 0-1000-304 305-305-305 0 94z m63 62l242 243 242-243 0 782-484 0 0-782z" horiz-adv-x="609" />
<glyph glyph-name="flag" unicode="&#xe83a;" d="m0-79l0 803q68 41 136 51t124-3 112-35 112-43 114-31 124 2 137 59l0-459q-52-53-109-67t-110 1-117 40-124 51-135 35-151-11l0-393-113 0z" horiz-adv-x="859" />
<glyph glyph-name="flag-circled" unicode="&#xe83b;" d="m0 350q0 207 147 354t353 146 354-146 146-354-146-354-354-146-353 146-147 354z m217-281l76 0 0 258q64 17 117 5t105-34 93-39 88-11 87 45l0 303q-62-39-124-42t-106 17-105 40-106 20q-63 2-125-35l0-527z" horiz-adv-x="1000" />
<glyph glyph-name="warning" unicode="&#xe83c;" d="m0-150l500 1000 500-1000-1000 0z m461 180l78 0 0 82-78 0 0-82z m0 342l19-186 40 0 19 186 0 130-78 0 0-130z" horiz-adv-x="1000" />
<glyph glyph-name="bell" unicode="&#xe83d;" d="m0 10l0 45 197 170 0 266q0 107 68 190t171 105l0 62 130 0 0-62q102-22 170-105t69-190l0-266 195-170 0-45-1000 0z m428-87q0 30 21 52t52 21 52-21 21-52-21-51-52-20-52 20-21 51z" horiz-adv-x="1000" />
<glyph glyph-name="comment-alt" unicode="&#xe83e;" d="m0 192l0 607 854 0 0-607-405 0-273-176 0 176-176 0z m348-112l119 77 129 0 9-6 170-112 0 118 149 0 0 433-31 0 0 76 107 0 0-586-148 0 0-179-59 37-221 142-224 0z" horiz-adv-x="1000" />
<glyph glyph-name="comment" unicode="&#xe83f;" d="m0 96l0 713 1000 0 0-713-473 0-320-205 0 205-207 0z" horiz-adv-x="1000" />
<glyph glyph-name="retweet" unicode="&#xe840;" d="m0 413l250 250 250-250-187 0 0-188 125 0 125-125-375 0 0 313-188 0z m438 187l374 0 0-312 188 0-250-250-250 250 188 0 0 187-125 0z" horiz-adv-x="1000" />
<glyph glyph-name="print" unicode="&#xe841;" d="m0 176l0 305 1000 0 0-305-154 0 54-265-800 0 54 265-154 0z m33 362l235 99 39 0 0 153 386 0 0-153 39 0 235-99-934 0z m131-553l672 0-78 381-516 0z" horiz-adv-x="1000" />
<glyph glyph-name="edit-alt" unicode="&#xe842;" d="m0-150l0 1000 646 0-164-164-318 0 0-672 672 0 0 319 164 164 0-647-1000 0z m363 363l0 118 6 0q39 2 72-30 39-39 39-88l-117 0z m51 176l367 367 125-125-367-367z m397 397l64 64 125-125-64-64z" horiz-adv-x="1000" />
<glyph glyph-name="edit-circled" unicode="&#xe843;" d="m0 350q0 207 147 354t353 146 354-146 146-354-146-354-354-146-353 146-147 354z m262-316l447 0 0 201-55-55 0-92-338 0 0 424 106 0 0 100 232 0 0-145-166-164-49-152 153 49 240 242-102 101-21-21 0 144-328 0-119-115 0-517z m228 168l26 74 50-51z" horiz-adv-x="1000" />
<glyph glyph-name="edit" unicode="&#xe844;" d="m0-150l0 818 188 182 521 0 0-226 31 31 162-160-380-381-239-78 76 238 262 262 0 226-369 0 0-156-164 0 0-668 533 0 0 143 88 87 0-318-709 0z m361 264l119 39-80 82z" horiz-adv-x="902" />
<glyph glyph-name="pencil-circled" unicode="&#xe845;" d="m0 350q0 207 147 354t353 146 354-146 146-354-146-354-354-146-353 146-147 354z m174-287l219 43-176 176z m86 250l168-166 269 271-166 166z m342 316q-2-25 15-41l84-84q18-17 43-16t44 19 20 44-17 43l-84 84q-16 16-39 16-27 0-47-20-17-19-19-45z" horiz-adv-x="1000" />
<glyph glyph-name="pencil" unicode="&#xe846;" d="m0-143l68 343 274-273z m137 392l422 422 259-260-421-422z m531 494q2 39 31 69t69 31 66-26l131-130q25-26 24-66t-30-69-69-30-66 24l-131 131q-27 27-25 66z" horiz-adv-x="989" />
<glyph glyph-name="export" unicode="&#xe847;" d="m0-150l0 1000 494 0 0-164-330 0 0-672 672 0 0 184 164 174 0-522-1000 0z m232 277q0 86 12 159t28 124 47 92 57 68 67 45 70 27 72 14 67 6 63 1l0 187 285-285-285-285 0 205q-108 0-159-3t-121-21-102-54-61-107-40-173z" horiz-adv-x="1000" />
<glyph glyph-name="quote-circled" unicode="&#xe848;" d="m0 350q0 207 147 354t353 146 354-146 146-354-146-354-354-146-353 146-147 354z m219-199l222 0 0 262-74 0q-4 48 27 69t88 34l-21 100q-39-4-64-8t-63-18-60-35-39-62-16-96l0-246z m299 0l222 0 0 262-74 0q-4 48 26 69t89 34l-21 100q-39-4-65-8t-62-18-60-35-39-62-16-96l0-246z" horiz-adv-x="1000" />
<glyph glyph-name="quote" unicode="&#xe849;" d="m0-62l0 437q0 71 15 129t38 97 61 67 72 45 83 28 82 14 81 7l37-176q-49-9-81-20t-66-31-48-53-10-77l131 0 0-467-395 0z m529 0l0 437q0 71 16 129t38 97 61 67 72 45 83 28 81 14 81 7l39-176q-51-9-83-20t-65-31-47-53-12-77l131 0 0-467-395 0z" horiz-adv-x="1000" />
<glyph glyph-name="share" unicode="&#xe84a;" d="m0-121q0 143 24 256t60 186 95 124 107 76 122 38 114 15 107 2l0 245 371-372-371-371 0 268q-102 0-151-1t-126-10-114-26-86-51-74-83-47-124-31-172z" horiz-adv-x="1000" />
<glyph glyph-name="upload" unicode="&#xe84b;" d="m0 350q0 207 147 354t353 146 354-146 146-354-146-354-354-146-353 146-147 354z m109 0q0-162 115-276t276-115 276 115 115 276-115 276-276 115-276-115-115-276z m170 14l221 207 221-207-123 0 0-223-196 0 0 223-123 0z" horiz-adv-x="1000" />
<glyph glyph-name="download-alt" unicode="&#xe84c;" d="m0-150l0 135 1000 0 0-135-1000 0z m88 586l228 0 0 414 370 0 0-414 228 0-414-385z" horiz-adv-x="1000" />
<glyph glyph-name="download" unicode="&#xe84d;" d="m0 350q0 207 147 354t353 146 354-146 146-354-146-354-354-146-353 146-147 354z m109 0q0-162 115-276t276-115 276 115 115 276-115 276-276 115-276-115-115-276z m170-14l123 0 0 223 196 0 0-223 123 0-221-207z" horiz-adv-x="1000" />
<glyph glyph-name="thumbs-down" unicode="&#xe84e;" d="m0 212l0 552q2 34 35 34l147 0q35-2 35-34l0-552q-2-16-12-26t-23-10l-147 0q-13 2-24 12t-11 24z m277 23l0 502q2 21 16 35t33 14l459 0q35-2 70-22 55-33 71-88l70-429q2-26-13-43t-36-18l-248 0q8-58 22-117 6-90-94-158-20-14-43-6-20 6-31 29l-112 252-115 0q-21 2-35 16t-14 33z" horiz-adv-x="996" />
<glyph glyph-name="thumbs-up" unicode="&#xe84f;" d="m0-63l0 552q0 16 10 25t25 11l147 0q33 0 35-36l0-552q0-14-10-24t-25-12l-147 0q-13 0-23 10t-12 26z m277 27l0 500q0 22 14 35t37 16l113 0 114 252q13 31 41 31 37 2 93-61 18-25 25-55t6-48-9-64-10-55l248 0q26 0 38-17t11-44l-70-429q-12-42-53-74t-88-38l-459 0q-21 0-35 14t-16 37z" horiz-adv-x="998" />
<glyph glyph-name="exclamation" unicode="&#xe850;" d="m0 350q0 207 147 354t353 146 354-146 146-354-146-354-354-146-353 146-147 354z m318 402l79-550 207 0 78 550-364 0z m77-696q0-44 31-76t76-32 76 32 31 76-31 76-76 33-76-33-31-76z" horiz-adv-x="1000" />
<glyph glyph-name="error" unicode="&#xe851;" d="m0 350q0 207 147 354t353 146 354-146 146-354-146-354-354-146-353 146-147 354z m137 0q0-150 106-257t257-106 257 106 106 257-106 257-257 106-257-106-106-257z m97-98l0 196 532 0 0-196-532 0z" horiz-adv-x="1000" />
<glyph glyph-name="error-alt" unicode="&#xe852;" d="m0 350q0 207 147 354t353 146 354-146 146-354-146-354-354-146-353 146-147 354z m164-133l672 0 0 266-672 0 0-266z" horiz-adv-x="1000" />
<glyph glyph-name="location" unicode="&#xe853;" d="m0 473q0 156 110 267t267 110 267-110 110-267q0-123-53-193l-324-430-324 430q-53 70-53 193z m219 0q0-66 46-112t112-46 112 46 46 112-46 112-112 46-112-46-46-112z" horiz-adv-x="754" />
<glyph glyph-name="location-circled" unicode="&#xe854;" d="m0 350q0 207 147 354t353 146 354-146 146-354-146-354-354-146-353 146-147 354z m250 82q0-82 35-129l215-283 215 283q35 47 35 129 0 104-73 176t-177 72-177-72-73-176z m145-1q0 44 31 74t74 31 74-31 31-74-31-74-74-30-74 30-31 74z" horiz-adv-x="1000" />
<glyph glyph-name="compass" unicode="&#xe855;" d="m0 349q0 188 134 322t322 134 321-134 133-322-133-321-321-133-322 133-134 321z m63 1q0-162 115-277t277-116 277 116 116 277-116 277-277 116-277-116-115-277z m138-234l186 302 302 186 20-22-184-302-302-184z" horiz-adv-x="910" />
<glyph glyph-name="compass-circled" unicode="&#xe856;" d="m0 349q0 188 134 322t322 134 321-134 133-322-133-321-321-133-322 133-134 321z m184-249l21-23 324 199 200 324-24 21-324-197z" horiz-adv-x="910" />
<glyph glyph-name="trash" unicode="&#xe857;" d="m0 633l0 141 289 0 0 76 246 0 0-76 289 0 0-141-824 0z m43-783l0 676 738 0 0-676-738 0z" horiz-adv-x="824" />
<glyph glyph-name="trash-circled" unicode="&#xe858;" d="m0 350q0 207 147 354t353 146 354-146 146-354-146-354-354-146-353 146-147 354z m242 178l516 0 0 88-180 0 0 46-156 0 0-46-180 0 0-88z m28-490l460 0 0 421-460 0 0-421z" horiz-adv-x="1000" />
<glyph glyph-name="doc" unicode="&#xe859;" d="m0-150l0 674 338 0 0 326 371 0 0-1000-709 0z m0 756l0 62 189 182 65 0 0-244-254 0z" horiz-adv-x="709" />
<glyph glyph-name="doc-circled" unicode="&#xe85a;" d="m0 350q0 207 147 354t353 146 354-146 146-354-146-354-354-146-353 146-147 354z m316-260l368 0 0 520-192 0 0-170-176 0 0-350z m0 393l131 0 0 127-33 0-98-96 0-31z" horiz-adv-x="1000" />
<glyph glyph-name="doc-new" unicode="&#xe85b;" d="m0-150l0 818 188 182 519 0 0-348-86 0 0 260-369 0 0-156-166 0 0-668 418 0 0-88-504 0z m373 207l0 162 209 0 0 207 160 0 0-207 207 0 0-162-207 0 0-207-160 0 0 207-209 0z" horiz-adv-x="949" />
<glyph glyph-name="doc-new-circled" unicode="&#xe85c;" d="m0 350q0 207 147 354t353 146 354-146 146-354-146-354-354-146-353 146-147 354z m264-271l295 0 0 52-245 0 0 391 98 0 0 92 215 0 0-153 53 0 0 204-305 0-111-106 0-480z m218 123l123 0 0-123 94 0 0 123 121 0 0 93-121 0 0 121-94 0 0-121-123 0 0-93z" horiz-adv-x="1000" />
<glyph glyph-name="folder" unicode="&#xe85d;" d="m0-52l0 715 139 0 68 90 217 0 68-90 508 0 0-715-1000 0z" horiz-adv-x="1000" />
<glyph glyph-name="folder-circled" unicode="&#xe85e;" d="m0 350q0 207 147 354t353 146 354-146 146-354-146-354-354-146-353 146-147 354z m201-240l598 0 0 426-303 0-41 54-129 0-43-54-82 0 0-426z" horiz-adv-x="1000" />
<glyph glyph-name="folder-close" unicode="&#xe85f;" d="m0-52l0 560 1000 0 0-560-1000 0z m0 594l0 121 139 0 68 90 217 0 68-90 508 0 0-121-1000 0z" horiz-adv-x="1000" />
<glyph glyph-name="folder-open" unicode="&#xe860;" d="m0-52l0 55 147 505 853 0-172-560-828 0z m0 205l0 510 139 0 68 90 217 0 68-90 336 0 0-121-724 0z" horiz-adv-x="1000" />
<glyph glyph-name="rss" unicode="&#xe861;" d="m0-150l0 199q82 0 141-58t58-141l-199 0z m0 400l0 200q248 0 424-176t176-424l-200 0q0 166-117 283t-283 117z m0 401l0 199q203 0 389-79t319-213 213-319 79-389l-199 0q0 217-108 401t-292 292-401 108z" horiz-adv-x="1000" />
<glyph glyph-name="phone" unicode="&#xe862;" d="m0 615q0 50 28 76l138 138q45 37 77-13l113-211q18-39-14-71l-51-52q-5-6-5-14 25-98 132-195l31-30t36-34 34-26 41-25 40-14q20-6 27 2l61 60q39 30 72 12l203-121q22-14 25-37t-13-39l-141-139q-27-27-74-27-140 4-318 121-258 185-375 406-72 151-67 233z" horiz-adv-x="988" />
<glyph glyph-name="phone-circled" unicode="&#xe863;" d="m0 350q0 207 147 354t353 146 354-146 146-354-146-354-354-146-353 146-147 354z m199 162q-4-51 41-142 71-133 229-248 107-71 193-73 29 0 47 16l84 86q10 10 8 23t-16 24l-123 72q-19 12-45-6l-35-37q-6-6-18-2-11 2-24 8t-25 16-21 16-21 21-20 17q-64 61-80 119 0 4 4 10l31 31q18 18 8 43l-68 129q-12 18-28 16-9 0-19-8l-84-86q-18-16-18-45z" horiz-adv-x="1000" />
<glyph glyph-name="lightbulb-alt" unicode="&#xe864;" d="m0 350q0 207 147 354t353 146 354-146 146-354-146-354-354-146-353 146-147 354z m225-25q2-8 8-13t15-5l57 10q9 2 14 8t5 13q-2 8-10 14-3 2-11 2l-4 0-57-10q-8 0-13-6t-4-13z m1 171q-3-7 1-15t11-12l51-21q10-4 18-2t9 10q4 7 0 14t-11 11l-51 23q-4 2-10 2l-6 0q-9-4-12-10z m100 114q-2-8 4-16l31-47q4-7 13-10t15 3q6 3 7 11t-3 16l-32 49q-4 8-11 9l-6 0q-6 0-10-1-6-6-8-14z m45-291q16-33 29-59 10-21 14-37 2-8 5-23t7-26q2-6 10-8l128 0q6 2 10 8 4 10 7 29t5 20q4 16 14 37l29 59q37 82 10 142-12 24-32 40t-47 26-60 9l-2 0q-62 0-105-34-75-74-22-183z m53-272q0-9 10-9l132 0q10 0 10 9l0 24q0 9-10 9l-132 0q-10 0-10-9l0-24z m0 65q0-10 10-10l132 0q10 0 10 10l0 23q0 10-10 10l-132 0q-10 0-10-10l0-23z m58 472q0-7 5-14t14-7 14 7 5 14l0 57q0 10-5 16t-13 5l-2 0q-8 0-12-5-6-6-6-16l0-57z m123-33q0-8 6-12 6-5 15-3t13 11l31 47q10 18-4 29-4 2-10 2l-6 0q-7-2-11-9l-32-49q-3-8-2-16z m71-213q0-8 5-13t14-8l57-10q8 0 15 5t8 13-4 13-13 6l-57 10-6 0q-6 0-9-2-8-6-10-14z m8 117q2-7 9-9t18 2l51 21q8 4 11 12t1 14-12 11l-6 0q-6 0-10-2l-51-23q-7-4-11-11t0-15z" horiz-adv-x="1000" />
<glyph glyph-name="lightbulb" unicode="&#xe865;" d="m1 309q-2 12 7 22t22 11l90 16q14 2 26-5t13-20-7-23-24-13l-88-13q-14-2-25 5t-14 20z m2 251q-6 13 0 24t19 16 26-4l82-35q14-6 19-18t0-23-18-16-26 0l-82 39q-14 4-20 17z m160 207q2 13 14 21 10 5 22 2t21-16l49-76q7-12 5-26t-11-19-23-3-20 15l-51 76q-8 13-6 26z m57-241q17 39 49 66t75 41 94 14l4 0q51 0 94-14t75-41 50-66q43-104-15-227-22-43-47-92-14-25-25-73t-16-61q-4-12-16-14l-203 0q-12 2-18 14-29 111-39 134-25 49-47 92-58 131-15 227z m99-623q0 8 5 12t13 5l209 0q6 0 11-5t5-12l0-35q0-8-5-13t-11-5l-209 0q-18 0-18 18l0 35z m0 68l0 35q0 18 18 18l209 0q6 0 11-5t5-13l0-35q0-8-5-13t-11-4l-209 0q-8 0-13 4t-5 13z m94 754l0 90q0 16 8 25t21 10q12 0 21-10t9-25l0-90q0-14-9-23t-21-10q-13 0-21 10t-8 23z m193-53q-1 14 6 26l49 76q10 12 22 16t23-2q10-8 12-21t-6-26l-49-76q-10-12-21-15t-23 3-13 19z m118-339q2 13 12 20t25 5l90-16q13-2 22-12t7-21q-2-14-13-21t-26-4l-90 13q-14 2-22 13t-5 23z m8 187q-4 12 1 23t18 18l84 35q12 8 24 4t19-16 0-24-20-17l-82-39q-13-4-26 0t-18 16z" horiz-adv-x="881" />
<glyph glyph-name="clock-circled" unicode="&#xe866;" d="m0 350q0 207 147 354t353 146 354-146 146-354-146-354-354-146-353 146-147 354z m268 90l236-236 338 337-90 90-248-248-147 147-9-10-71-70z" horiz-adv-x="1000" />
<glyph glyph-name="clock" unicode="&#xe867;" d="m0 349q0 188 134 322t322 134 321-134 133-322-133-321-321-133-322 133-134 321z m119 0q0-140 99-238t238-99 238 99 99 238-99 238-238 99-238-99-99-238z m172-69l0 117 117 0 0 213 117 0 0-330-234 0z" horiz-adv-x="910" />
<glyph glyph-name="headphones" unicode="&#xe868;" d="m0 69l0 250q0 207 147 353t353 147 354-147 146-353l0-250q-4-41-35-54t-61 5-29 49l0 250q0 156-109 265t-266 110-266-110-109-265l0-250q-4-41-35-54t-61 5-29 49z m188-157l0 313q0 14 8 22t23 9l62 0q14 0 23-9t9-22l0-313q0-13-9-22t-23-9l-62 0q-14 0-23 9t-8 22z m500 0l0 313q0 14 8 22t23 9l62 0q14 0 23-9t9-22l0-313q0-13-9-22t-23-9l-62 0q-14 0-23 9t-8 22z" horiz-adv-x="1000" />
<glyph glyph-name="volume-up" unicode="&#xe869;" d="m0 169l0 360 203 0 307 250 0-858-307 248-203 0z m563 33q62 63 62 151t-62 152l60 65q90-90 92-219 0-125-92-213z m101-105q106 105 106 256t-106 258l66 62q131-133 131-319t-131-321z m100-98q146 147 146 354t-146 353l62 65q82-82 128-190t46-227-46-229-128-190z" horiz-adv-x="1000" />
<glyph glyph-name="volume" unicode="&#xe86a;" d="m0 142l0 416 236 0 354 289 0-994-354 289-236 0z m652 35q73 74 73 176t-73 178l71 74q105-106 107-254 0-145-107-246z m118-119q123 119 123 295t-123 299l76 74q154-154 154-372t-154-372z" horiz-adv-x="1000" />
<glyph glyph-name="volume-down" unicode="&#xe86b;" d="m0 141l0 418 236 0 358 291 0-1000-358 291-236 0z m656 37q74 74 74 174 0 104-74 180l73 74q103-106 107-256 0-144-107-246z" horiz-adv-x="836" />
<glyph glyph-name="volume-off" unicode="&#xe86c;" d="m0 551l305 0 345 282 0-965-345 279-229 0z m713-283q0 4 2 6l76 76-76 76q-2 2-2 6t2 6l53 53q2 2 5 2t6-2l76-76 77 76q4 2 6 2t5-2l55-53q2-2 2-6t-2-6l-76-76 76-76q2-4 2-7t-2-5l-55-55q-2-1-5-1t-6 1l-77 79-76-79q-2-1-5-1t-6 1l-53 55q-2 2-2 6z" horiz-adv-x="1000" />
<glyph glyph-name="mic-circled" unicode="&#xe86d;" d="m0 350q0 207 147 354t353 146 354-146 146-354-146-354-354-146-353 146-147 354z m283-142q20-18 43-32 53-35 115-47l0 22 118 0 0-22q62 12 115 47 23 14 43 32l0 183-43 0 0-162q-76-63-174-63t-174 63l0 162-43 0 0-183z m71 58q64-53 146-53t146 53l0 358q-19 15-44 27l0-72-36 0 0 87q-23 6-48 8l0-95-36 0 0 95q-25 0-48-8l0-87-36 0 0 74q-25-14-44-29l0-358z m15-240l262 0 0 43-72 0 0 60q-30-5-59-5t-59 5l0-60-72 0 0-43z" horiz-adv-x="1000" />
<glyph glyph-name="mic" unicode="&#xe86e;" d="m0 131l0 282 64 0 0-248q120-96 270-96t270 96l0 248 64 0 0-282q-31-27-64-50-82-53-178-71l0 32-184 0 0-32q-95 18-178 71-33 23-64 50z m109 90l0 549q30 25 69 45l0-113 54 0 0 134q38 12 75 14l0-148 54 0 0 148q37-4 77-14l0-134 54 0 0 111q37-18 67-43l0-549q-98-80-225-80t-225 80z m26-303l107 0 0 92q45-8 92-8t92 8l0-92 107 0 0-68-398 0 0 68z" horiz-adv-x="668" />
<glyph glyph-name="calendar-circled" unicode="&#xe86f;" d="m0 350q0 207 147 354t353 146 354-146 146-354-146-354-354-146-353 146-147 354z m219-314l562 0 0 408-562 0 0-408z m0 443l562 0 0 139-68 0 0-88-127 0 0 88-172 0 0-88-127 0 0 88-68 0 0-139z m105 88l53 0 0 98-53 0 0-98z m37-391l47 0q2-35 30-35 33 2 33 39 0 24-16 29-12 6-43 6l0 35q53-2 53 30 0 33-27 33-32-2-32-29l-45 0q2 31 25 47t53 17q51 0 67-39 10-27 2-45-10-21-39-31 49-14 49-57-2-31-26-51t-53-19q-78 0-78 70z m178 92l0 39q35 16 59 37l41 0 0-234-45 0 0 189q-24-21-55-31z m84 299l53 0 0 98-53 0 0-98z" horiz-adv-x="1000" />
<glyph glyph-name="calendar" unicode="&#xe870;" d="m0-150l0 649 893 0 0-649-893 0z m0 705l0 221 109 0 0-141 200 0 0 141 275 0 0-141 199 0 0 141 110 0 0-221-893 0z m168 139l0 156 82 0 0-156-82 0z m59-619q0-112 123-112 47 0 84 32 39 31 39 80 0 68-78 90 48 15 64 48 12 28-2 73-27 62-107 62-51 0-86-26t-37-77l72 0q0 45 49 46 43 0 45-52 0-49-84-47l0-57q48 0 68-8 23-11 23-46 0-57-54-61-43 0-47 55l-72 0z m281 146q49 14 88 47l0-297 70 0 0 371-64 0q-38-37-94-58l0-63z m135 473l0 156 82 0 0-156-82 0z" horiz-adv-x="893" />
<glyph glyph-name="basket-circled" unicode="&#xe871;" d="m0 350q0 207 147 354t353 146 354-146 146-354-146-354-354-146-353 146-147 354z m213 246q6-12 18-15l68-22 25-246-15-88q-2-14 6-23t23-12l377 0q12 0 20 9t9 20-9 21-20 10l-342 0 8 40 357 0q24 0 30 25l25 141q2 11-6 22t-21 13l-403 45-6 48q-2 20-19 28l-90 27q-12 4-23-2-26-15-12-41z m123-471q0-19 14-33t33-13 33 13 14 33-14 34-33 13-33-13-14-34z m275 0q0-19 14-33t33-13 33 13 14 33-14 34-33 13-33-13-14-34z" horiz-adv-x="1000" />
<glyph glyph-name="basket" unicode="&#xe872;" d="m2 791q8 20 27 29t38 4l150-48q32-10 35-43l10-84 686-77q23-5 35-22t10-38l-43-238q-8-43-49-43l-608 0-11-69 578 0q21 0 36-14t15-36q-2-22-17-37t-34-14l-641 0q-25 2-39 19t-12 41l28 149-41 418-119 39q-45 17-34 64z m217-839q0 32 24 56t55 23 56-23 23-56-23-55-56-24-55 24-24 55z m469 0q0 32 23 56t56 23 56-23 23-56-23-55-56-24-56 24-23 55z" horiz-adv-x="993" />
<glyph glyph-name="wrench-circled" unicode="&#xe873;" d="m0 350q0 207 147 354t353 146 354-146 146-354-146-354-354-146-353 146-147 354z m199-201l100-100 283 284q41-16 89-6t82 44 44 81-6 89l-100-99-72 27-27 72 99 100q-25 10-54 10-69 0-115-49-36-33-45-81t5-89z m77-23q-20 21 1 42 20 20 41 0 20-21-1-42t-41 0z" horiz-adv-x="1000" />
<glyph glyph-name="wrench" unicode="&#xe874;" d="m0 21l463 463q-25 68-10 145t72 134 133 72 147-10l-162-162 45-117 115-45 164 164q25-70 9-147t-73-133-132-72-148 8l-463-462z m113-2q0-20 14-34t33-13 33 13 14 34-14 33-33 14-33-14-14-33z" horiz-adv-x="982" />
<glyph glyph-name="cogs" unicode="&#xe875;" d="m0 245l0 97 94 8q8 30 23 55l-60 74 68 69 74-61q26 16 55 23l8 94 97 0 10-94q29-7 55-23l74 61 68-69-60-74q16-25 23-55l94-8 0-97-94-10q-7-29-23-55l60-72-68-70-74 60q-26-15-55-23l-10-94-97 0-8 94q-29 8-55 23l-74-60-68 70 60 72q-15 26-23 55z m221 49q0-37 26-64t64-26 63 26 26 64-26 63-63 26-64-26-26-63z m318 238l8 72 70-2q8 22 20 39l-37 57 54 45 49-49q20 10 41 14l14 66 72-8-2-68q22-8 39-22l57 39 45-54-49-49q10-20 12-43l68-14-8-70-68 0q-8-20-22-37l39-59-56-45-47 49q-22-8-43-12l-14-66-70 6 0 70q-20 8-37 20l-59-37-45 54 49 49q-8 20-12 41z m31-446l6 51 49 0q6 16 14 28l-26 43 37 33 36-37q13 7 29 9l10 49 48-6 0-48q16-6 28-16l41 27 31-41-35-35q6-14 10-29l47-12-6-51-49 0q-4-15-14-27l28-43-40-33-35 37q-13-8-29-10l-10-49-49 6 0 51q-13 4-27 14l-41-28-31 41 35 35q-6 14-8 30z m118 14q-4-21 8-36t32-18 34 10 17 33-10 36-31 18l-6 0q-17 0-31-13t-13-30z m17 451q-4-27 14-49t45-24 48 15 23 45-14 47-44 25l-7 0q-26 0-44-17t-21-42z" horiz-adv-x="1000" />
<glyph glyph-name="cog-circled" unicode="&#xe876;" d="m0 350q0 207 147 354t353 146 354-146 146-354-146-354-354-146-353 146-147 354z m195-47l92-10q8-29 22-52l-59-73 68-68 73 59q23-14 52-22l10-92 94 0 10 92q29 8 52 22l73-59 68 68-59 73q14 23 22 52l92 10 0 94-92 10q-8 29-22 52l59 73-68 68-73-59q-23 14-52 22l-10 92-94 0-10-92q-29-8-52-22l-73 59-68-68 59-73q-14-23-22-52l-92-10 0-94z m217 47q0 37 26 63t62 25 63-25 25-63-25-62-63-26-62 26-26 62z" horiz-adv-x="1000" />
<glyph glyph-name="cog" unicode="&#xe877;" d="m0 272l0 156 150 16q14 45 38 88l-96 117 109 109 117-95q41 23 88 37l16 150 156 0 16-150q45-14 88-37l117 95 109-109-96-117q24-43 38-88l150-16 0-156-150-16q-14-47-38-88l96-117-109-109-117 96q-43-24-88-38l-16-150-156 0-16 150q-47 14-88 38l-117-96-109 109 96 117q-24 41-38 88z m355 78q0-60 42-102t103-42 103 42 42 102-42 103-103 42-103-42-42-103z" horiz-adv-x="1000" />
<glyph glyph-name="block" unicode="&#xe878;" d="m0 349q0 188 134 322t322 134 321-134 133-322-133-321-321-133-322 133-134 321z m115 27q-9-126 63-225l476 476q-99 73-225 63t-215-99-99-215z m143-305q99-73 224-63t215 100 100 215-63 224z" horiz-adv-x="910" />
<glyph glyph-name="resize-full" unicode="&#xe879;" d="m0-150l0 441 148-148 202 201 144-144-201-202 148-148-441 0z m506 650l201 202-148 148 441 0 0-441-148 148-202-201z" horiz-adv-x="1000" />
<glyph glyph-name="resize-full-alt" unicode="&#xe87a;" d="m0-150l0 342 119-119 278 277-276 275-121-121 0 346 342 0-119-119 277-277 275 275-121 121 346 0 0-342-119 119-277-277 275-275 121 121 0-346-342 0 119 119-277 278-275-276 121-121-346 0z" horiz-adv-x="1000" />
<glyph glyph-name="resize-small" unicode="&#xe87b;" d="m0-4l201 202-148 146 441 0 0-441-146 148-201-201z m506 360l0 441 146-148 202 201 146-146-201-202 148-146-441 0z" horiz-adv-x="1000" />
<glyph glyph-name="resize-vertical" unicode="&#xe87c;" d="m0 104l170 0 0 492-170 0 254 254 254-254-170 0 0-492 170 0-254-254z" horiz-adv-x="508" />
<glyph glyph-name="resize-horizontal" unicode="&#xe87d;" d="m0 350l254 254 0-170 492 0 0 170 254-254-254-254 0 170-492 0 0-170z" horiz-adv-x="1000" />
<glyph glyph-name="move" unicode="&#xe87e;" d="m0 350l172 172 0-119 275 0 0 275-119 0 172 172 172-172-119 0 0-275 275 0 0 119 172-172-172-172 0 119-275 0 0-275 119 0-172-172-172 172 119 0 0 275-275 0 0-119z" horiz-adv-x="1000" />
<glyph glyph-name="zoom-in" unicode="&#xe87f;" d="m0 403q0 185 131 316t316 131 318-131 131-316q0-141-82-256l186-186-111-111-186 186q-115-82-256-82-185 0-316 131t-131 318z m127 0q0-133 94-227t226-93 227 93 94 227-94 225-227 93-226-93-94-225z m129-65l0 127 129 0 0 129 127 0 0-129 129 0 0-127-129 0 0-129-127 0 0 129-129 0z" horiz-adv-x="1000" />
<glyph glyph-name="zoom-out" unicode="&#xe880;" d="m0 403q0 185 131 316t316 131 318-131 131-316q0-141-82-256l186-186-111-111-186 186q-115-82-256-82-185 0-316 131t-131 318z m127 0q0-133 94-227t226-93 227 93 94 227-94 225-227 93-226-93-94-225z m129-65l0 127 385 0 0-127-385 0z" horiz-adv-x="1000" />
<glyph glyph-name="down-open" unicode="&#xe881;" d="m0 526l148 148 352-351 352 351 148-148-352-352-148-148-148 148z" horiz-adv-x="1000" />
<glyph glyph-name="left-open" unicode="&#xe882;" d="m0 350l148 149 352 351 148-148-351-352 351-352-148-148-352 352z" horiz-adv-x="648" />
<glyph glyph-name="right-open" unicode="&#xe883;" d="m0-2l352 352-352 352 148 148 352-351 148-149-148-148-352-352z" horiz-adv-x="648" />
<glyph glyph-name="up-open" unicode="&#xe884;" d="m0 174l352 352 148 148 148-148 352-352-148-148-352 351-352-351z" horiz-adv-x="1000" />
<glyph glyph-name="down" unicode="&#xe885;" d="m0 436l211 0 0 414 359 0 0-414 211 0-390-586z" horiz-adv-x="781" />
<glyph glyph-name="left" unicode="&#xe886;" d="m0 350l586 391 0-211 414 0 0-360-414 0 0-211z" horiz-adv-x="1000" />
<glyph glyph-name="right" unicode="&#xe887;" d="m0 170l0 360 414 0 0 211 586-391-586-391 0 211-414 0z" horiz-adv-x="1000" />
<glyph glyph-name="up" unicode="&#xe888;" d="m0 264l391 586 390-586-211 0 0-414-359 0 0 414-211 0z" horiz-adv-x="781" />
<glyph glyph-name="down-circled" unicode="&#xe889;" d="m0 350q0 207 147 354t353 146 354-146 146-354-146-354-354-146-353 146-147 354z m248 55l252-377 252 377-135 0 0 267-234 0 0-267-135 0z" horiz-adv-x="1000" />
<glyph glyph-name="left-circled" unicode="&#xe88a;" d="m0 350q0 207 147 354t353 146 354-146 146-354-146-354-354-146-353 146-147 354z m178 0l377-252 0 135 267 0 0 234-267 0 0 135z" horiz-adv-x="1000" />
<glyph glyph-name="right-circled" unicode="&#xe88b;" d="m0 350q0 207 147 354t353 146 354-146 146-354-146-354-354-146-353 146-147 354z m178-117l267 0 0-135 377 252-377 252 0-135-267 0 0-234z" horiz-adv-x="1000" />
<glyph glyph-name="backward-circled" unicode="&#xe88c;" d="m0 350q0 207 147 354t353 146 354-146 146-354-146-354-354-146-353 146-147 354z m188 0l250-187 0 375z m312 0l250-187 0 375z" horiz-adv-x="1000" />
<glyph glyph-name="backward" unicode="&#xe88d;" d="m0 350l344 344 0-313 312 313 0-688-312 313 0-313z" horiz-adv-x="656" />
<glyph glyph-name="eject" unicode="&#xe88e;" d="m0-96l0 258 1000 0 0-258-1000 0z m0 354l500 539 500-539-1000 0z" horiz-adv-x="1000" />
<glyph glyph-name="record" unicode="&#xe88f;" d="m0 350q0 207 147 354t353 146 354-146 146-354-146-354-354-146-353 146-147 354z m250 0q0-103 73-177t177-73 177 73 73 177-73 177-177 73-177-73-73-177z" horiz-adv-x="1000" />
<glyph glyph-name="pause-circled" unicode="&#xe890;" d="m0 350q0 207 147 354t353 146 354-146 146-354-146-354-354-146-353 146-147 354z m275-260l153 0 0 520-153 0 0-520z m297 0l153 0 0 520-153 0 0-520z" horiz-adv-x="1000" />
<glyph glyph-name="pause" unicode="&#xe891;" d="m0-25l0 750 313 0 0-750-313 0z m438 0l0 750 312 0 0-750-312 0z" horiz-adv-x="750" />
<glyph glyph-name="stop-circled" unicode="&#xe892;" d="m0 350q0 207 147 354t353 146 354-146 146-354-146-354-354-146-353 146-147 354z m250-250l500 0 0 500-500 0 0-500z" horiz-adv-x="1000" />
<glyph glyph-name="stop" unicode="&#xe893;" d="m0-25l0 750 750 0 0-750-750 0z" horiz-adv-x="750" />
<glyph glyph-name="play-circled2" unicode="&#xe894;" d="m0 350q0 207 147 354t353 146 354-146 146-354-146-354-354-146-353 146-147 354z m115 0q0-158 114-271t271-114 271 114 114 271-114 272-271 113-271-113-114-272z m260-250l0 500 375-250z" horiz-adv-x="1000" />
<glyph glyph-name="play-circled" unicode="&#xe895;" d="m0 350q0 207 147 354t353 146 354-146 146-354-146-354-354-146-353 146-147 354z m375-250l375 250-375 250 0-500z" horiz-adv-x="1000" />
<glyph glyph-name="play" unicode="&#xe896;" d="m0-25l0 750 625-375z" horiz-adv-x="625" />
<glyph glyph-name="shuffle" unicode="&#xe897;" d="m0 44l0 123 145 0q27 0 33 3t23 22q10 12 139 195 111 160 160 209 63 65 137 65l142 0 0 154 221-221-221-218 0 162-142 0q-16 0-23-4t-28-26q-39-39-145-191-23-31-58-84t-54-78-36-45q-59-66-148-66l-145 0z m0 494l0 123 145 0q89 0 148-69 23-25 61-78-2-4-7-10t-7-11q-22-29-51-71-2-3-6-8t-6-7q-58 84-76 103-17 22-23 25t-33 3l-145 0z m430-346q43 64 60 90 4 4 8 10t6 7q57-76 82-103 21-22 28-25t23-4l142 0 0 158 221-219-221-221 0 159-142 0q-74 0-137 64-29 29-70 84z" horiz-adv-x="1000" />
<glyph glyph-name="arrows-cw" unicode="&#xe898;" d="m0-150l0 402 402 0-160-160q108-107 258-107 125 0 222 75t130 192l138 0q-35-173-173-288t-317-114q-207 0-353 146z m10 598q35 174 173 288t317 114q207 0 354-146l146 146 0-402-402 0 160 160q-108 107-258 107-125 0-222-75t-130-192l-138 0z" horiz-adv-x="1000" />
<glyph glyph-name="cw-circled" unicode="&#xe899;" d="m0 350q0 207 147 354t353 146 354-146 146-354-146-354-354-146-353 146-147 354z m211 0q0-119 85-204t204-85q80 0 146 39t104 106l-102 58q-21-39-61-62t-87-24q-70 0-121 51t-51 121 51 121 121 51q61 0 107-37l-76-55 258-86 0 270-84-61q-84 86-205 86-119 0-204-85t-85-204z" horiz-adv-x="1000" />
<glyph glyph-name="cw" unicode="&#xe89a;" d="m0 350q0 207 147 354t353 146q209 0 355-148l145 103 0-465-445 149 131 93q-82 65-186 65-123 0-210-87t-87-210 87-210 210-87q82 0 150 40t108 109l176-102q-67-113-182-182t-252-68q-207 0-353 146t-147 354z" horiz-adv-x="1000" />
<glyph glyph-name="up-hand" unicode="&#xe89b;" d="m0 419q2 60 39 98t110 42q51 43 119 33 25 16 57 22l0 107q2 53 37 91t88 38q54 0 88-36t39-93q1-219 1-273 94 45 170 17 55-19 82-78t4-115q-23-22-79-30t-77-19q-23-14-41-35-16-21-57-59t-58-60l0-154q0-26-19-44t-44-21l-347 0q-26 0-44 19t-21 46l0 169q0 28-14 94t-25 124-8 117z m59-30q2-55 13-109t25-115 15-84l347 0 0 3q16 38 71 87t68 68q21 25 54 41t55 20 69 13q4 0 7 1t4 5q4 21-9 47-22 35-58 42t-66-4-74-28-66-20l0 365q-2 27-19 45t-45 20q-24-2-41-20t-20-45l0-191q-49 49-107-10-26 16-59 7t-47-36q-62 9-91-19t-26-83z" horiz-adv-x="845" />
<glyph glyph-name="right-hand" unicode="&#xe89c;" d="m0 39l0 348q2 25 21 44t44 18l154 0q23 18 60 59t59 56q21 18 35 41 10 22 19 78t30 79q57 23 115-4t78-82q28-76-17-170 54 0 273-2 57-4 93-38t36-89q0-53-38-88t-91-37l-107 0q-6-31-22-57 10-68-33-119-4-72-42-109t-98-39-117 8-124 24-94 15l-170 0q-27 2-45 20t-19 44z m231 0q23 0 83-15t116-25 109-13 83 27 19 91q27 13 36 46t-7 59q59 59 10 107l191 0q27 2 45 20t20 41q-2 29-20 46t-45 18l-365 0q4 24 20 67t28 73 4 66-42 58q-26 14-47 10-4-2-5-5t-1-7q-8-45-13-68t-20-56-41-54q-18-13-68-68t-87-70l-3 0 0-348z" horiz-adv-x="1000" />
<glyph glyph-name="left-hand" unicode="&#xe89d;" d="m0 377q0 55 36 89t93 38q219 2 273 2-45 94-17 170 19 54 78 82t115 4q22-24 30-79t19-78q14-23 35-41 22-15 59-56t60-59l155 0q25 0 43-18t21-44l0-348q0-25-19-44t-45-20l-170 0q-28 0-94-15t-124-24-117-8-98 39-42 109q-43 51-33 119-16 26-22 57l-107 0q-53 2-91 37t-38 88z m65 0q1-23 19-41t45-20l191 0q-48-48 10-107-16-25-7-59t36-46q-9-63 19-91t83-27 109 13 116 25 84 15l0 348-4 0q-37 15-87 70t-68 68q-25 22-41 54t-20 56-13 68q0 4-1 7t-5 5q-21 4-47-10-35-21-42-58t4-66 28-73 20-67l-365 0q-27-2-45-18t-20-46z" horiz-adv-x="1000" />
<glyph glyph-name="down-hand" unicode="&#xe89e;" d="m0 281q-2 59 8 117t25 124 14 94l0 170q2 27 21 45t44 19l347 0q26-2 44-20t19-44l0-155q17-23 58-60t57-59q18-21 41-35 22-10 77-19t79-30q24-56-4-115t-82-78q-76-27-170 17 0-54-1-273-4-57-39-93t-88-36q-53 0-88 38t-37 91l0 107q-32 6-57 22-68-10-119 33-72 4-110 42t-39 98z m59 30q-2-55 26-83t91-19q14-27 47-36t59 7q58-58 107-10l0-191q2-27 20-45t41-20q29 2 45 20t19 45l0 365q23-4 66-20t74-28 66-4 58 42q13 26 9 47-2 4-4 5t-7 1q-45 8-69 13t-55 20-54 41q-14 18-68 68t-71 87l0 4-347 0q0-24-15-84t-25-116-13-109z" horiz-adv-x="845" />
<glyph glyph-name="up-circled" unicode="&#xe89f;" d="m0 350q0 207 147 354t353 146 354-146 146-354-146-354-354-146-353 146-147 354z m248-55l135 0 0-267 234 0 0 267 135 0-252 377z" horiz-adv-x="1000" />
<glyph glyph-name="fast-backward" unicode="&#xe8a0;" d="m0-25l0 750 125 0 0-344 313 313 0-313 312 313 0-688-312 313 0-313-313 313 0-344-125 0z" horiz-adv-x="750" />
<glyph glyph-name="fast-forward" unicode="&#xe8a1;" d="m0 6l0 688 313-313 0 313 312-313 0 344 125 0 0-750-125 0 0 344-312-313 0 313z" horiz-adv-x="750" />
<glyph glyph-name="forward" unicode="&#xe8a2;" d="m0 6l0 688 313-313 0 313 343-344-343-344 0 313z" horiz-adv-x="656" />
<glyph glyph-name="step-backward" unicode="&#xe8a3;" d="m0-25l0 750 125 0 0-344 313 313 0-688-313 313 0-344-125 0z" horiz-adv-x="437" />
<glyph glyph-name="forward-circled" unicode="&#xe8a4;" d="m0 350q0 207 147 354t353 146 354-146 146-354-146-354-354-146-353 146-147 354z m250-187l250 187-250 188 0-375z m313 0l249 187-249 188 0-375z" horiz-adv-x="1000" />
<glyph glyph-name="step-forward" unicode="&#xe8a5;" d="m0 6l0 688 313-313 0 344 125 0 0-750-125 0 0 344z" horiz-adv-x="437" />
<glyph glyph-name="target" unicode="&#xe8a6;" d="m0 274l0 152 131 0q21 110 102 191t191 102l0 131 152 0 0-131q110-21 191-102t102-191l131 0 0-152-131 0q-21-109-102-191t-191-102l0-131-152 0 0 131q-110 21-191 102t-102 191l-131 0z m231 0q19-70 71-122t122-71l0 146 152 0 0-146q70 19 122 71t72 122l-147 0 0 152 147 0q-20 71-72 122t-122 72l0-147-152 0 0 147q-70-20-122-72t-71-122l146 0 0-152-146 0z" horiz-adv-x="1000" />
<glyph glyph-name="signal" unicode="&#xe8a7;" d="m0-150l0 250 199 0 0-250-199 0z m268 0l0 500 199 0 0-500-199 0z m265 0l0 750 199 0 0-750-199 0z m268 0l0 1000 199 0 0-1000-199 0z" horiz-adv-x="1000" />
<glyph glyph-name="desktop" unicode="&#xe8a8;" d="m0 104l0 660 1000 0 0-660-363 0 0-96 88 0 0-72-450 0 0 72 88 0 0 96-363 0z m123 125l754 0 0 410-754 0 0-410z" horiz-adv-x="1000" />
<glyph glyph-name="desktop-circled" unicode="&#xe8a9;" d="m0 350q0 207 147 354t353 146 354-146 146-354-146-354-354-146-353 146-147 354z m209-144l211 0 0-55-51 0 0-43 262 0 0 43-51 0 0 55 211 0 0 386-582 0 0-386z m70 74l0 238 442 0 0-238-442 0z" horiz-adv-x="1000" />
<glyph glyph-name="laptop" unicode="&#xe8aa;" d="m0 47l0 88 1000 0 0-88-51-52-898 0z m100 135l0 524 800 0 0-524-800 0z m99 96l602 0 0 334-602 0 0-334z m209-252l184 0 0 80-184 0 0-80z" horiz-adv-x="1000" />
<glyph glyph-name="laptop-circled" unicode="&#xe8ab;" d="m0 350q0 207 147 354t353 146 354-146 146-354-146-354-354-146-353 146-147 354z m178-195l31-35 582 0 31 35 0 56-644 0 0-56z m64 88l516 0 0 338-516 0 0-338z m65 60l0 215 386 0 0-215-386 0z m132-162l0 51 122 0 0-51-122 0z" horiz-adv-x="1000" />
<glyph glyph-name="network" unicode="&#xe8ac;" d="m0 348l0 4q232 19 367 115 43-20 86 2 92-92 192-123 11-29 37-47-32-76-86-135-41 29-87 14t-64-59q-131 0-250 55t-193 152q-2 6-2 22z m6 70q19 127 100 226t197 141q8-84 37-154-51-53-22-117-130-80-312-96z m14-207q87-76 199-118t224-42q-138-70-271-63-109 90-152 223z m252-285q113 15 212 72 47-25 94-4t59 71q156 33 263 121-37-92-106-161t-154-105-182-35-186 41z m97 879q88 19 180 2-29-84-92-162-41 17-55 11-33 80-33 149z m129-287q16 39 2 76 84 103 113 195 61-19 108-53 17-132 4-256-61-9-82-64-69 25-145 102z m164-379q53 62 84 144 47 6 72 41 77 6 112 12 0-6-1-15t-1-12q-96-125-266-170z m129 326q12 111 4 211 111-115 131-272-39-9-90-11-6 46-45 72z" horiz-adv-x="930" />
<glyph glyph-name="inbox" unicode="&#xe8ad;" d="m0-150l0 483 328 0q0-73 51-123t121-49 121 49 51 123l328 0 0-483-1000 0z m279 768l119 0 0 232 204 0 0-232 119 0-221-332z" horiz-adv-x="1000" />
<glyph glyph-name="inbox-circled" unicode="&#xe8ae;" d="m0 350q0 207 147 354t353 146 354-146 146-354-146-354-354-146-353 146-147 354z m199-281l602 0 0 289-197 0q0-41-31-71t-73-31-73 31-30 71l-198 0 0-289z m168 461l133-199 133 199-72 0 0 140-122 0 0-140-72 0z" horiz-adv-x="1000" />
<glyph glyph-name="inbox-alt" unicode="&#xe8af;" d="m0 6l0 313 273 375 454 0 273-375 0-313-1000 0z m78 313l172 0 125-125 250 0 125 125 172 0-233 312-378 0z" horiz-adv-x="1000" />
<glyph glyph-name="globe" unicode="&#xe8b0;" d="m0 350q0 207 147 354t353 146 354-146 146-354-146-354-354-146-353 146-147 354z m118-39q5-55 27-107 29-73 84-127t125-84q1 17 5 67t8 77q-4 16-22 51t-21 57q0 19 1 29t1 16q-4 1-10 7l-7 8q-8 8-12 10-12 4-34 12t-33 11-29 12-30 18-26 22-24 28q-8-52-3-107z m142 340q17 2 35 0 18-8 38-31t34-32q4-4 12-4 4-9 23-12t24-7q23-14 37-33-24-34-37-39 0-2 2-2 4-8-4-12-6-2-24-6t-23-11-10-24q0-4-4-8 4-27 2-49t-13-23q-6 0-12 2-8 2-19 8t-24 17q0-6 4-15t4-12l6 0q7 2 11-3t0-9l-2-6-2-2 8-4q10-7 19-7t22 1q20 2 31 2t27-8 22-15 22-18 23-17q4-2 22-13t26-19 9-21q-2-70-26-96-7-7-22-18t-23-21-15-23q-6-12-6-27-6-12-16-34t-15-29q99-19 194 12t161 105q51 55 76 121t28 137l-37-21q-24 2-24-8l16-6q4-2 4-4 4-10-4-21-6-12-29-36-2-25-4-33-4-10-10-21l0-14q-2-8-9-22t-9-25q-4-27-23-51-29-27-49-23-8 2-14 10-4 13-13 37t-12 29q-4 10-4 20t2 23 2 20q0 9-7 24t-7 21q-2 5 4 19l-9 3q-8 3-32 3l-12 0q-44 0-56 55-6 33 14 64 1 4 1 9l0 7q10 2 18 19 8 0 36 4t42 5 35-5q8-6 16-10 14-9 23-13l32 21q-10 16-20 26-27 31-57 0l-68 5q-16-9-39-11-2 11-6 19-6 12-7 19t3 11l8 7q8 6 11 17t5 24 4 20q5 14 17 31 6 14 23 22t35 13 39 8 38 4q-37 31-76 53-12 0-32 5t-29 4q-21 2-49-13-21-16-50-16-37 0-75 13t-64 28q-64-21-117-64z" horiz-adv-x="1000" />
<glyph glyph-name="globe-alt" unicode="&#xe8b1;" d="m0 350q0 207 147 354t353 146 354-146 146-354-146-354-354-146-353 146-147 354z m125 57q22-28 47-43t65-30 58-21q4-6 15-15t14-10q0-6-2-16-2-22 1-39t8-27 16-29 16-28q2-6 0-14-2-15-8-64t-7-76q39-24 76-26 4 8 8 18 4 8 8 20t13 29q0 13 5 25t11 18q6 7 13 13 20 16 36 32t17 25q8 31 10 68 0 12-9 20t-20 15q-18 8-46 35t-42 32q-18 8-34 9t-31-1q-13-4-33-2-4 6-8 8-8 3-2 9 4 8-3 11t-14 1q-8 23-8 37 14-12 23-17t18-8 14-2q9 4 11 19t-2 43q4 4 4 8 4 18 11 23t7 6q4 0 4 2 4 2 15 4 6 2 10 3t10 3q8 4 4 12l-2 0q17 10 35 41-12 19-35 31-8 10-20 6-5 0-14 6t-13 8-12 3q-13 8-26 21t-21 26q-3 10-17 14-10 2-20 2l-11 0q-55-43-93-104t-50-134z m256 297q25-14 60-26t69-12q23 0 51 16 27 20 76 10 8-2 13-2-35 16-74 23t-80 8q-60 0-115-17z m164-383q4-26 19-39 12-12 26-14t25 0 28-2q7-4 9-4-6-13-4-21 0-4 6-19t6-24q-4-49 0-61 6-12 14-33t14-33q3-8 13-10 20-4 47 23 20 24 23 51 2 10 8 22t10 25q2 6 0 14 14 21 14 39l0 14q2 3 9 10t12 11q6 23 2 31 0 2-4 4l-17 6q11 25 35 20l31 9 0 6q0 90-36 163t-99 126q-101-11-127-45-11-19-15-33-2-8-5-20t-4-17-5-12-12-17q-4-4-4-11t6-19q6-9 6-17 29 0 37 10l71-6q25 31 56 0 8-8 18-26l-29-19q-20 10-34 15t-28 8-22 1-31-4-36-3l-4-7t-6-7-7-3q-2-4-2-10l0-8q-22-27-14-64z" horiz-adv-x="1000" />
<glyph glyph-name="cloud" unicode="&#xe8b2;" d="m0 241q4 69 33 125t87 85 124 14q53 85 128 114t145 6 126-81 78-137q49 6 89-22t56-68 9-90-47-82l-791 0q-41 67-37 136z" horiz-adv-x="877" />
<glyph glyph-name="cloud-circled" unicode="&#xe8b3;" d="m0 350q0 207 147 354t353 146 354-146 146-354-146-354-354-146-353 146-147 354z m159-34q-3-54 29-105l615 0q29 26 36 63t-7 69-45 54-68 18q-22 76-83 126t-132 49q-94-2-156-101-51 13-96-9t-67-67-26-97z" horiz-adv-x="1000" />
<glyph glyph-name="barcode" unicode="&#xe8b4;" d="m0-82l0 864 84 0 0-864-84 0z m123 0l0 864 20 0 0-864-20 0z m70 0l0 864 63 0 0-864-63 0z m92 0l0 864 28 0 0-864-28 0z m104 0l0 864 41 0 0-864-41 0z m56 0l0 864 18 0 0-864-18 0z m61 0l0 864 19 0 0-864-19 0z m45 0l0 864 82 0 0-864-82 0z m111 0l0 864 43 0 0-864-43 0z m102 0l0 864 9 0 0-864-9 0z m25 0l0 864 27 0 0-864-27 0z m68 0l0 864 20 0 0-864-20 0z m61 0l0 864 82 0 0-864-82 0z" horiz-adv-x="1000" />
<glyph glyph-name="qrcode" unicode="&#xe8b5;" d="m0-150l0 455 455 0 0-455-455 0z m0 545l0 455 455 0 0-455-455 0z m90-455l273 0 0 273-273 0 0-273z m0 547l273 0 0 273-273 0 0-273z m92-455l0 92 91 0 0-92-91 0z m0 545l0 89 91 0 0-89-91 0z m363-727l0 455 271 0 0-92 94 0 0 92 90 0 0-273-273 0 0 90-90 0 0-272-92 0z m0 545l0 455 455 0 0-455-455 0z m92 92l273 0 0 273-273 0 0-273z m90-547l89 0 0-90-89 0 0 90z m0 637l0 89 89 0 0-89-89 0z m183-637l90 0 0-90-90 0 0 90z" horiz-adv-x="1000" />
<glyph glyph-name="road" unicode="&#xe8b6;" d="m0-150l201 1000 250 0-8-230 114 0-8 230 250 0 201-1000-418 0-10 287-144 0-10-287-418 0z m430 373l140 0-11 340-118 0z" horiz-adv-x="1000" />
<glyph glyph-name="off" unicode="&#xe8b7;" d="m0 350q0 207 147 354l101-102q-105-103-105-252t104-253 253-104 253 104 104 253-105 252l102 102q146-147 146-354t-146-354-354-146-353 146-147 354z m428-78l0 578 144 0 0-578-144 0z" horiz-adv-x="1000" />
<glyph glyph-name="briefcase" unicode="&#xe8b8;" d="m0-89l0 254 451 0 0-80 98 0 0 80 451 0 0-254-1000 0z m0 332l0 406 266 0 0 141 468 0 0-141 266 0 0-406-451 0 0 84-98 0 0-84-451 0z m338 406l324 0 0 68-324 0 0-68z" horiz-adv-x="1000" />
<glyph glyph-name="indent-right" unicode="&#xe8b9;" d="m0-66l0 147 1000 0 0-147-1000 0z m0 229l0 146 578 0 0-146-578 0z m0 228l0 147 578 0 0-147-578 0z m0 229l0 146 1000 0 0-146-1000 0z m719-270l281 188 0-375z" horiz-adv-x="1000" />
<glyph glyph-name="indent-left" unicode="&#xe8ba;" d="m0-66l0 147 1000 0 0-147-1000 0z m0 229l0 375 281-188z m0 457l0 146 1000 0 0-146-1000 0z m422-457l0 146 578 0 0-146-578 0z m0 228l0 147 578 0 0-147-578 0z" horiz-adv-x="1000" />
<glyph glyph-name="list" unicode="&#xe8bb;" d="m0-13l0 180 180 0 0-180-180 0z m0 273l0 180 180 0 0-180-180 0z m0 274l0 180 180 0 0-180-180 0z m266-547l0 180 734 0 0-180-734 0z m0 273l0 180 734 0 0-180-734 0z m0 274l0 180 734 0 0-180-734 0z" horiz-adv-x="1000" />
<glyph glyph-name="align-justify" unicode="&#xe8bc;" d="m0-89l0 156 1000 0 0-156-1000 0z m0 240l0 156 1000 0 0-156-1000 0z m0 242l0 156 1000 0 0-156-1000 0z m0 240l0 157 1000 0 0-157-1000 0z" horiz-adv-x="1000" />
<glyph glyph-name="align-right" unicode="&#xe8bd;" d="m0-89l0 156 1000 0 0-156-1000 0z m211 482l0 156 789 0 0-156-789 0z m180-242l0 156 609 0 0-156-609 0z m93 482l0 157 516 0 0-157-516 0z" horiz-adv-x="1000" />
<glyph glyph-name="align-center" unicode="&#xe8be;" d="m0-89l0 156 1000 0 0-156-1000 0z m106 482l0 156 789 0 0-156-789 0z m89-242l0 156 610 0 0-156-610 0z m47 482l0 157 516 0 0-157-516 0z" horiz-adv-x="1000" />
<glyph glyph-name="align-left" unicode="&#xe8bf;" d="m0-89l0 156 1000 0 0-156-1000 0z m0 240l0 156 609 0 0-156-609 0z m0 242l0 156 789 0 0-156-789 0z m0 240l0 157 516 0 0-157-516 0z" horiz-adv-x="1000" />
<glyph glyph-name="text-width" unicode="&#xe8c0;" d="m0 24l174 174 0-117 652 0 0 117 174-174-174-174 0 115-652 0 0-115z m211 648l4 178 570 0 4-178-60 0q0 92-20 107t-137 14l0-488q0-45 11-53t75-7l0-49-316 0 0 49q64 0 75 6t11 54l0 488q-117 0-137-14t-19-107l-61 0z" horiz-adv-x="1000" />
<glyph glyph-name="text-height" unicode="&#xe8c1;" d="m0 499l6 177 570 0 4-177-60 0q0 91-20 107t-137 16l0-491q0-45 11-51t73-7l0-49-314 0 0 49q62-2 73 6t11 52l0 491q-117 0-136-16t-18-107l-63 0z m652-475l118 0 0 652-118 0 174 174 174-174-115 0 0-652 115 0-174-174z" horiz-adv-x="1000" />
<glyph glyph-name="italic" unicode="&#xe8c2;" d="m0-150l14 70 127 0 172 858-127 0 13 72 391 0-14-72-127 0-172-858 127 0-13-70-391 0z" horiz-adv-x="590" />
<glyph glyph-name="bold" unicode="&#xe8c3;" d="m0-60l125 0 0 820-125 0 0 80 582 0q180 0 270-60t89-182q0-88-62-139t-184-64q147-14 226-79t79-173q0-145-111-215-110-68-344-68l-545 0 0 80z m379 0l94 0q125 0 185 49t61 154q0 105-62 157t-184 52l-94 0 0-412z m0 492l86 0q113 0 168 39 55 43 55 127 0 86-55 125-53 37-168 37l-86 0 0-328z" horiz-adv-x="1000" />
<glyph glyph-name="fontsize" unicode="&#xe8c4;" d="m0 19l209 685q4 12 16 12l138 0q12 0 16-12l207-681q2-6 2-8 0-16-16-16l-125 0q-11 0-15 12l-35 123-206 0-35-123q-4-12-15-12l-125 0q-20 0-16 20z m223 248l142 0-72 252z m369-111q4 84 53 128 46 41 111 41 66 0 109-35l0 32q0 74-76 74-59 0-107-51-18-14-26 4l-41 68q-4 12 4 20 37 37 84 54 57 24 130 18t114-45q51-45 51-129l0-324q0-16-16-16l-99 0q-16 0-18 16l0 10q-47-37-109-37-67 2-111 45-51 48-53 127z m133-2q0-30 17-51 29-24 68-17t55 34l0 69q-13 25-37 31-57 20-86-14-17-23-17-52z" horiz-adv-x="998" />
<glyph glyph-name="font" unicode="&#xe8c5;" d="m0-74l86 0 353 918 112 0 351-918 98 0 0-70-359 0 0 70 109 0-82 217-416 0-82-217 107 0 0-70-277 0 0 70z m279 287l364 0-182 471z" horiz-adv-x="1000" />
<glyph glyph-name="leaf" unicode="&#xe8c6;" d="m2 56q9 28 31 48t44 41 20 32q-14 30-14 39-19 127 61 232t195 153q43 18 102 20t104-4 94 4 79 43q45 49 82 49 23 0 33-20 55-119 30-240t-96-221-168-150q-182-90-352-32-13 4-43 23t-47 18q-9-5-19-18t-22-32-15-26q-14-23-37-27t-43 16q-28 25-19 52z m182 175q1-15 13-24t26-8 24 12q145 173 377 168 16-2 27 8t10 25q0 15-9 26t-26 13q-127 6-239-45t-194-147q-10-13-9-28z" horiz-adv-x="871" />
<glyph glyph-name="flight" unicode="&#xe8c7;" d="m0 180l80 170-80 170 100 0 113-100 180 0-125 401 99 0 225-401 258 0 37-2q39-2 76-19t37-49q0-20-17-34t-36-22-45-10-36-3-16-1l-258 0-225-401-99 0 125 401-180 0-113-100-100 0z" horiz-adv-x="1000" />
<glyph glyph-name="braille" unicode="&#xe8c8;" d="m0-26q0 52 36 88t87 36 88-36 37-88-37-88-88-36-87 36-36 88z m0 376q0 51 36 88t87 37 88-37 37-88-37-88-88-37-87 37-36 88z m0 376q0 52 36 88t87 36 88-36 37-88-37-88-88-36-87 36-36 88z m397-752q0 52 37 88t88 36 86-36 37-88-37-88-86-36-88 36-37 88z m0 376q0 51 37 88t88 37 86-37 37-88-37-88-86-37-88 37-37 88z m0 376q0 52 37 88t88 36 86-36 37-88-37-88-86-36-88 36-37 88z" horiz-adv-x="644" />
<glyph glyph-name="book" unicode="&#xe8c9;" d="m0 147l0 543q0 31 14 53 29 45 102 77t116 9l471-242 0-590-86-47 0 590-420 224q-29 10-65-9t-58-47l469-270 0-529-86-47z" horiz-adv-x="703" />
<glyph glyph-name="adjust" unicode="&#xe8ca;" d="m0 350q0 207 147 354t353 146 354-146 146-354-146-354-354-146-353 146-147 354z m147 0q0-146 103-250t250-104l0 708q-146 0-250-104t-103-250z" horiz-adv-x="1000" />
<glyph glyph-name="tint" unicode="&#xe8cb;" d="m0 204q2 106 57 190 17 27 55 80t54 78q90 139 127 256 16 45 59 41 46 2 58-41 37-120 129-256 18-29 55-80t54-78q55-88 57-190-4-148-103-250-106-101-250-103-149 4-248 103-104 108-104 250z m154-78q2-37 28-62t60-26q37 2 63 28t25 60q0 27-14 47-17 23-27 41-25 41-33 63-2 13-14 11-11 2-15-11-8-28-30-63-6-10-15-22t-14-19q-14-20-14-47z" horiz-adv-x="705" />
<glyph glyph-name="check" unicode="&#xe8cc;" d="m0-150l0 1000 646 0-164-164-318 0 0-672 672 0 0 319 164 164 0-647-1000 0z m234 623l133 131 129-129 361 363 133-132-361-364-133-133z" horiz-adv-x="1000" />
<glyph glyph-name="check-empty" unicode="&#xe8cd;" d="m0-150l0 1000 1000 0 0-1000-1000 0z m164 164l672 0 0 672-672 0 0-672z" horiz-adv-x="1000" />
<glyph glyph-name="asterisk" unicode="&#xe8ce;" d="m0 395l57 176 351-116 0 370 184 0 0-370 351 116 57-176-352-113 217-299-148-108-217 299-217-299-148 108 217 299z" horiz-adv-x="1000" />
<glyph glyph-name="gift" unicode="&#xe8cf;" d="m0 290l0 250 357 0-158 126 190 125 70-212 121 271 190-187-194-123 326 0 0-250-62 0 0-440-777 0 0 440-63 0z m63 62l326 0 0 125-326 0 0-125z m62-439l264 0 0 396-264 0 0-396z m154 750l139-112-55 166z m215-122l201 127-99 100z m20-628l263 0 0 396-263 0 0-396z m0 439l326 0 0 125-326 0 0-125z" horiz-adv-x="902" />
<glyph glyph-name="fire" unicode="&#xe8d0;" d="m7 238q10 41 50 131t44 146q39-72 45-145 148 184 154 428 10-6 25-17t58-45 74-74 61-96 34-118q15 36 19 78t-9 81q15-12 41-40t56-74 56-99 31-118-9-127-72-127-152-120q64 128 25 278t-154 229q10-43-11-141t-65-150q7 63 4 102t-12 58l-10 18q-12-70-60-141-26-37-39-68t-9-80 30-105q-135 76-181 154t-24 181z" horiz-adv-x="748" />
<glyph glyph-name="magnet" unicode="&#xe8d1;" d="m0 412q0 181 137 309t329 128 329-128 137-309q0-20-2-39l-10-192-293 24 8 193q2 6 2 14 0 66-50 113t-120 47-121-47-51-114q0-5 2-13l10-194-295-23-10 191q-2 20-2 39z m23-346l293 25 18-187q2-14-8-24t-23-11l-225-18q-15-2-26 7t-11 22z m575-162l17 187 295-25-17-186q-2-13-13-22t-25-7l-226 18q-14 1-23 11t-8 24z" horiz-adv-x="932" />
<glyph glyph-name="chart" unicode="&#xe8d2;" d="m0-29l0 758 1000 0 0-758-1000 0z m123 123l754 0 0 512-754 0 0-512z m27 162l125 104 36 29 31-33 43-47 105 166 47 72 39-78 61-125 127 223 86-49-176-305-45-80-41 84-63 131-91-142-34-53-43 45-54 56-90-74z" horiz-adv-x="1000" />
<glyph glyph-name="chart-circled" unicode="&#xe8d3;" d="m0 350q0 207 147 354t353 146 354-146 146-354-146-354-354-146-353 146-147 354z m209-221l582 0 0 442-582 0 0-442z m72 73l0 297 438 0 0-297-438 0z m16 93l37-43 51 43 31-33 25-27 20 31 55 82 35-74 23-49 28 47 101 176-49 27-76-129-33 72-23 47-28-43-60-95-26 27-19 18-20-16z" horiz-adv-x="1000" />
<glyph glyph-name="credit-card" unicode="&#xe8d4;" d="m0 18l0 664 1000 0 0-664-1000 0z m63 63l874 0 0 296-874 0 0-296z m0 439l874 0 0 100-874 0 0-100z m60-361q0 13 5 21t15 8 14-8 5-21-5-22-14-8-15 8-5 22z m8 0q0-12 3-18t9-6 8 6 3 18-3 17-8 6-9-6-3-17z m43 0q0 13 5 21t14 8 15-8 5-21-5-22-15-8-14 8-5 22z m8 0q0-12 3-18t8-6 9 6 3 18-3 17-9 6-8-6-3-17z m41 0q0 13 5 21t14 8 15-8 5-21-5-22-15-8-14 8-5 22z m8 0q0-12 2-18t9-6 9 6 3 18-3 17-9 6-9-6-2-17z m42 0q0 13 5 21t15 8 15-8 5-21-5-22-15-8-15 8-5 22z m8 0q0-12 3-18t9-6 9 6 3 18-3 17-9 6-9-6-3-17z m39-10l0 6 22 0 0-6-22 0z m32 10q0 13 4 21t15 8 15-8 5-21-5-22-15-8-15 8-4 22z m7 0q0-12 3-18t9-6 9 6 3 18-3 17-9 6-9-6-3-17z m41 0q0 13 5 21t15 8 15-8 4-21-4-22-15-8-15 8-5 22z m8 0q0-12 3-18t9-6 9 6 3 18-3 17-9 6-9-6-3-17z m41 0q0 13 6 21t15 8 14-8 6-21-6-22-14-8-15 8-6 22z m8 0q0-12 4-18t10-6 9 6 2 18-2 17-9 6-10-6-4-17z m43 0q0 13 5 21t15 8 14-8 5-21-5-22-14-8-15 8-5 22z m8 0q0-12 3-18t9-6 8 6 3 18-3 17-8 6-9-6-3-17z" horiz-adv-x="1000" />
<glyph glyph-name="megaphone" unicode="&#xe8d5;" d="m0 344l0 123q2 35 26 60t58 24l270 0q138 8 272 65t229 152q36-2 59-26t23-58l0-199q28-8 45-30t18-50q-2-30-19-51t-44-27l0-201q-1-36-26-59t-56-24q-207 184-449 211-66-33-53-127t77-142q-28-47-96-52t-105 30q-16 45-25 76t-16 71-7 78 10 72l-107 0q-35 2-60 27t-24 57z m438-10q240-44 419-183l0 508q-203-151-419-182l0-143z" horiz-adv-x="1000" />
<glyph glyph-name="clipboard" unicode="&#xe8d6;" d="m0-150l0 904 225 0 0-64-161 0 0-774 579 0 0 774-161 0 0 64 225 0 0-904-707 0z m129 129l0 31 31 0 0-31-31 0z m0 121l0 31 31 0 0-31-31 0z m0 121l0 31 31 0 0-31-31 0z m0 121l0 32 31 0 0-32-31 0z m0 121l0 32 31 0 0-32-31 0z m0 96l0 94 129 0 0 97q0 41 27 71t69 29 69-30 28-70q0-56-2-97l129 0 0-94-449 0z m96-582l0 33 353 0 0-33-353 0z m0 121l0 33 353 0 0-33-353 0z m0 121l0 33 353 0 0-33-353 0z m0 121l0 34 353 0 0-34-353 0z m0 121l0 34 353 0 0-34-353 0z m97 260q0-14 9-22t23-9 22 9 9 22-9 24-22 9-23-9-9-24z" horiz-adv-x="707" />
<glyph glyph-name="hdd" unicode="&#xe8d7;" d="m0 239l199 537 602 0 199-537-80-315-840 0z m78-51l55-213 734 0 55 213-844 0z m654-106q0 16 12 28t28 12 29-12 11-28-11-29-29-11-28 11-12 29z" horiz-adv-x="1000" />
<glyph glyph-name="key" unicode="&#xe8d8;" d="m0 350q0 113 80 193t193 81q96 0 169-58t97-148l461 0 0-117-64 0 0-218-116 0 0 218-54 0 0-150-118 0 0 150-105 0q-18-95-94-160t-176-64q-113 0-193 80t-80 193z m127 0q0-60 43-103t103-43 104 43 43 103-43 104-104 43-103-43-43-104z" horiz-adv-x="1000" />
<glyph glyph-name="certificate" unicode="&#xe8d9;" d="m0 219l94 139-86 146 154 67 6 168 166-28 96 139 125-113 156 64 43-162 166-29-51-160 123-116-129-107 43-164-168-20-52-160-153 75-131-108-88 145-167-20 3 170z" horiz-adv-x="992" />
<glyph glyph-name="tasks" unicode="&#xe8da;" d="m0-41l0 196 1000 0 0-196-1000 0z m0 293l0 196 1000 0 0-196-1000 0z m0 293l0 196 1000 0 0-196-1000 0z m406-244l543 0 0 100-543 0 0-100z m221 293l322 0 0 100-322 0 0-100z m119-586l203 0 0 100-203 0 0-100z" horiz-adv-x="1000" />
<glyph glyph-name="filter" unicode="&#xe8db;" d="m0 850l1000 0-346-346 0-402-308-252 0 654z" horiz-adv-x="1000" />
<glyph glyph-name="blogger" unicode="&#xe8dc;" d="m0-150l0 1000 1000 0 0-1000-1000 0z m188 377q0-195 218-191l235 0q160 23 173 189l0 88q-3 59-39 85t-84 28q10 35 2 94-5 61-47 101t-111 45l-191 0q-65-9-108-47t-48-99l0-293z m96-29q-16 29 0 58t56 35l285 0q41-5 58-35t1-58-55-35l-285 0q-43 5-60 35z m35 264q-14 27 1 53t55 32l156 0q41-4 56-30t-1-53-55-34l-156 0q-41 6-56 32z" horiz-adv-x="1000" />
<glyph glyph-name="behance" unicode="&#xe8dd;" d="m0-150l0 1000 1000 0 0-1000-1000 0z m156 158l256 0q49 2 80 32 31 33 31 84 0 46-21 74-18 23-51 31l0 4q29 10 45 29 20 28 20 71-2 44-32 74-31 29-74 29l-254 0 0-428z m121 100l0 74 94 0q14-2 20-10 9-9 9-23l0-8q0-14-9-23-8-10-20-10l-94 0z m0 162l0 72 86 0q12 0 20-9t8-24l0-6q0-13-8-23t-20-10l-86 0z m250-98q0-43 12-76 12-31 34-53t54-32 72-11q78 2 117 36 41 33 41 91l-107 0q0-9-4-17-10-29-51-29-31 0-45 18t-13 54l220 0q0 62-11 97-10 32-32 53t-52 31-71 10q-37 0-67-11t-52-32-33-52-12-77z m75 194l189 0 0 70-189 0 0-70z m37-155q2 26 15 40t41 15q24 0 37-15t14-40l-107 0z" horiz-adv-x="1000" />
<glyph glyph-name="female" unicode="&#xe8de;" d="m0 528q0 133 94 227t226 95 228-95 95-227q0-116-75-204t-185-111l0-103 137 0 0-123-137 0 0-137-123 0 0 137-139 0 0 123 139 0 0 103q-112 22-186 111t-74 204z m127 0q0-80 57-137t136-57 137 57 57 137-57 137-137 56-136-56-57-137z" horiz-adv-x="643" />
<glyph glyph-name="male" unicode="&#xe8df;" d="m0 209q0 149 105 254t254 106q106 0 196-57l199 199-152 0 0 139 390 0 0-391-140 0 0 151-196-198q63-91 63-203 0-148-106-254t-255-105-253 105-105 254z m145 1q0-88 62-152t151-63 153 63 63 152-63 152-153 62-151-62-62-152z" horiz-adv-x="992" />
<glyph glyph-name="universal-access" unicode="&#xe8e0;" d="m0 350q0 207 147 354t353 146 354-146 146-354-146-354-354-146-353 146-147 354z m66 0q0-180 127-307t307-127 307 127 127 307-127 307-307 127-307-127-127-307z m163 2q-20 27 2 47l167 146q12 8 22 11t25 3l110 0q15 0 25-3t22-11q9-7 71-62t97-84q21-22 1-47-21-24-46-4-20 18-63 54t-64 57q0-2-3 0t-7 4-6 2q-6 0-6-13l0-58t4-67q2-22 2-26l49-271q4-41-33-49-18-4-33 7t-16 26q-39 221-39 225-6 23-10 23-4-2-6-5t-2-7-1-7l-1-4q0-2-10-59t-19-111l-10-55q-6-18-18-26t-31-7q-39 10-33 49l49 273q6 37 6 147 0 15-6 15t-16-8l-127-109q-27-20-46 4z m199 300q0 30 21 52t52 21 52-21 21-52-21-52-52-21-52 21-21 52z" horiz-adv-x="1000" />
<glyph glyph-name="accessibility" unicode="&#xe8e1;" d="m0 188q2 109 63 193 64 86 162 125 43 10 56-25 6-18-1-33t-24-20q-78-33-123-95-45-69-47-145 4-107 78-180 82-74 186-74 86 2 152 47 70 49 98 121 5 16 9 31 12 41 51 32 41-12 33-49-5-24-13-41-39-104-127-164-96-61-203-61-145 4-246 100-102 101-104 238z m264 562q2 43 30 72t69 28q43-2 72-30t28-70q-2-43-31-71t-69-28q-43 2-71 30t-28 69z m47-209l2 0q-8 36 21 65 23 21 59 21 27 0 46-15 10-8 17-16t11-19 5-18 4-23 4-22l166 0q32-2 42-31 3-24-10-39t-37-14l-143 0 22-105 181 0q47-2 65-39l162-284q15-33-10-58-22-20-48-15t-38 30l-141 245q-48 1-144 0t-109 0q-59 3-69 54z" horiz-adv-x="934" />
<glyph glyph-name="guidedog" unicode="&#xe8e2;" d="m5 537q-14 29 12 42 13 6 26 2t18-13q20-31 58-51t69-20l315 0q-31-156-27-296-18 0-50 5t-48 6q-27 4-20-23l45-178q-2-49-39-55-15 0-31 11t-20 23l-56 222q-2 12-13 12t-15-12l-52-220q-10-36-43-36-22 0-35 18t-10 37l64 262 4 160q-45 12-89 39t-63 65z m394 164q-11 21 8 33 22 12 33-6l112-176q11-23-6-35-24-10-35 8z m90-690l39 160q2 8-2 16 2 185 26 293 78-102 211-129-4-12-13-34t-13-32q-4-14 4-41 29-114 61-231 4-29-16-41t-43-6-29 24l-45 172q-10 17-27 18t-24-18l-41-170q-10-26-33-28t-41 14-14 33z m96 508l135 139 23 86 53-63q6-2 26-6t31-8 24-12 18-21 12-45 14-41q12-11 25-21t33-33q18-36-48-71-28 2-52 6t-42 6q-24 4-41 8-4-10-7-22t-9-23q-58 12-113 44t-82 77z" horiz-adv-x="983" />
<glyph glyph-name="blind" unicode="&#xe8e3;" d="m5-94q-12 24 5 51l129 166 51 184 0 150-27-37-10-107q-4-26-25-34t-37 5-14 37l13 115q0 9 6 17l104 141q19 31 56 35t65-21l113-143 111-23q22-4 30-30t-22-37l356-488q5-10-4-15t-16 3l-381 502-103 20q-14 4-22 13l-43 55 0-158 112-127q5-6 7-18l55-244q4-27-17-44t-48-10-34 37l-49 232-92 104-41-145q-6-14-8-18l-135-173q-21-20-47-19t-38 24z m179 835q0 40 28 69t69 28 68-28 28-69-28-68-68-28-69 28-28 68z" horiz-adv-x="911" />
<glyph glyph-name="child" unicode="&#xe8e4;" d="m0-134l0 345q-2 92 45 143t129 53l314 0q90 0 130-56t42-140l0-345q-2-16-13-16l-90 0q-16 2-16 16l0 308q-4 28-25 25t-24-25l0-308q0-16-13-16l-293 0q-14 0-14 16l0 308q-4 28-25 25t-24-25l0-308q0-16-14-16l-93 0q-14 2-16 16z m129 778q0 85 61 146t144 60 145-60 60-146-60-145-145-59-144 59-61 145z m88-34q0-47 34-81t82-34 82 34 34 81l-232 0z" horiz-adv-x="660" />
<glyph glyph-name="adult" unicode="&#xe8e5;" d="m0-132l0 289q0 103 60 177t157 75l330 0q101-2 158-76t57-176l0-289q0-18-18-18l-105 0q-16 0-16 18l0 252q-6 27-27 24t-22-24l0-252q-2-18-19-18l-352 0q-17 0-17 18l0 252q-4 27-26 24t-23-24l0-252q0-18-18-18l-101 0q-18 0-18 18z m186 783q0 82 59 140t140 59q86-4 142-60t59-139q-2-84-61-143t-140-58q-84 2-142 60t-57 141z" horiz-adv-x="762" />
<glyph glyph-name="person" unicode="&#xe8e6;" d="m0 238l0 275q0 71 47 96 17 8 41 8l207 0q23 0 43-8 59-29 59-96l0-275q-4-31-31-28t-28 28l0 262q-2 9-18 7t-15-7l0-600q-4-27-26-36t-42 4-20 34l0 365q-4 18-22 15t-17-15l0-365q-2-29-25-38t-42 3-21 33l0 600q-4 9-18 7t-15-7l0-262q-4-31-31-28t-26 28z m102 505q0 40 28 68t68 28 69-28 28-68-28-68-69-29-68 29-28 68z" horiz-adv-x="396" />
<glyph glyph-name="hearing-impaired" unicode="&#xe8e7;" d="m0-62q0 22 16 38l248 250q17 16 40 16t38-16q15-18 15-41t-15-39l-248-250q-41-35-78 0-16 19-16 42z m125 477q4 131 90 219 94 90 219 92 129-4 216-92 90-94 90-219 0-50-11-83t-36-75q-9-23-41-60t-41-53q-6-18-6-39t0-48 2-42q-2-90-54-133-53-29-114-29-21 2-35 16t-14 33 12 35q10 10 21 14t26 4 24 3q25 8 27 16 6 20 6 59 2 9 0 59t4 58q10 41 29 68 6 6 16 18t15 17l32 47q5 8 14 25t13 22q12 31 12 68-2 90-61 149-64 60-146 60-88-2-147-60-60-65-62-149 0-21-14-36t-35-14q-22 2-36 16t-15 34z m154-7q2 66 45 109 47 45 110 47 64-4 107-47 45-47 47-109-2-20-14-32t-29-11q-41 3-41 43-2 29-23 49t-47 21q-30-2-50-23t-21-47q-2-20-13-32t-30-11q-41 3-41 43z m434 249q0 22 17 38l135 136q20 16 41 16t37-16q18-17 17-40t-17-38l-134-136q-41-38-79 0-17 17-17 40z" horiz-adv-x="960" />
<glyph glyph-name="iphone-home" unicode="&#xe8e8;" d="m0 350q0 207 147 354t353 146 354-146 146-354-146-354-354-146-353 146-147 354z m285-174q0-15 12-27t29-14l348 0q15 0 27 12t14 29l0 348q0 16-12 27t-29 14l-348 0q-15 0-27-12t-14-29l0-348z m80 61l0 228q0 20 20 20l230 0q20 0 20-20l0-228q0-22-20-22l-230 0q-20 0-20 22z" horiz-adv-x="1000" />
<glyph glyph-name="glasses" unicode="&#xe8e9;" d="m0 386q-2 13 8 25l360 186q29 11 41-16 11-33-14-45l-227-104 658 0-228 104q-25 16-14 45 14 27 43 16l362-186q11-12 9-25l-27-256q-8-30-33-30l-313 0q-25 2-31 26l-49 223q-39 25-92 1l-50-224q-6-26-32-26l-312 0q-27 2-31 30z m67-30l19-189 260 0 43 189-322 0z m543 0l41-189 259 0 20 189-320 0z" horiz-adv-x="999" />
<glyph glyph-name="asl" unicode="&#xe8ea;" d="m1 700q-4 37 15 53t45 5 35-38l53-184q-15-29-14-64 6-30 36-204 7-52 32-82t65-29q47 0 74 37 34-39 83-37t74 41q27-37 71-41t73 27q12 16 20 32t11 37 5 33 1 40l0 38q26-10 61 24 49 45 109 78t98 8q33-24 31-59t-35-55q-61-25-104-82t-67-112-58-117-78-93q-21-18-66-18l-350 0q-84 6-105 118z m181-234q-6 45 21 65t56 8 37-48l21-209q4-41-17-63t-46-15-37 45z m155 70q2 41 32 56t62-1 36-49l8-248q0-59-28-76t-57 4-30 62z m175 4q4 43 37 55t62-7 30-52l-6-254q-5-47-34-66t-54 1-29 67z" horiz-adv-x="979" />
<glyph glyph-name="address-book-alt" unicode="&#xe8eb;" d="m0 350q0 207 147 354t353 146 354-146 146-354-146-354-354-146-353 146-147 354z m219-281l562 0 0 99-62 0 0 55 62 0 0 100-62 0 0 54 62 0 0 100-62 0 0 55 62 0 0 99-562 0 0-562z m109 160l0 88 2 0 104 62q-45 22-45 73 0 33 23 56t58 24 57-24 24-56q0-51-45-73l103-62 2 0 0-88-283 0z" horiz-adv-x="1000" />
<glyph glyph-name="address-book" unicode="&#xe8ec;" d="m0-150l0 1000 1000 0 0-178-109 0 0-95 109 0 0-178-109 0 0-98 109 0 0-178-109 0 0-95 109 0 0-178-1000 0z m193 285l504 0 0 155-187 111q37 19 58 54t22 77q0 58-42 101t-103 43-102-43-42-101q0-43 22-77t58-54l-188-111 0-155z" horiz-adv-x="1000" />
<glyph glyph-name="smiley-circled" unicode="&#xe8ed;" d="m0 350q0 207 147 354t353 146 354-146 146-354-146-354-354-146-353 146-147 354z m238-262l524 0 0 524-524 0 0-524z m80 246l364 0q0-76-53-128t-129-53-129 53-53 128z m36 122q0 23 16 40t40 16 40-16 17-40-17-40-40-17-40 17-16 40z m175 0q0 23 17 40t40 16 40-16 17-40-17-40-40-17-40 17-17 40z" horiz-adv-x="1000" />
<glyph glyph-name="smiley" unicode="&#xe8ee;" d="m0-150l0 1000 1000 0 0-1000-1000 0z m152 471q0-145 102-246t246-102 246 102 102 246l-696 0z m67 230q0-45 31-76t76-31 77 31 33 76-33 77-77 33-76-33-31-77z m336 0q0-45 32-76t77-31 76 31 31 76-31 77-76 33-77-33-32-77z" horiz-adv-x="1000" />
<glyph glyph-name="gauge" unicode="&#xe8ef;" d="m0 188q0 207 147 354t353 146 354-146 146-354q0-92-31-176l-137 0q43 82 43 176 0 154-109 265t-266 110-266-110-109-265q0-94 43-176l-137 0q-31 84-31 176z m250 180q0 25 19 44t44 18 43-18 19-44-19-44-43-19-44 19-19 44z m188 60q0 26 18 44t44 19 44-19 19-44-19-44-44-18-44 18-18 44z m13-416l0 49 49 246 49-246 0-49-98 0z m174 356q0 25 19 44t44 18 43-18 19-44-19-44-43-19-44 19-19 44z" horiz-adv-x="1000" />
<glyph glyph-name="cc" unicode="&#xe8f0;" d="m0 30l0 640 500 98 500-98 0-640-500-98z m174 316q0-70 27-117 43-72 133-72 39 0 68 13 73 32 78 125l-56 0q-16-86-88-86-27 0-47 12-55 31-55 125 0 43 10 76 26 69 90 69l18-2q58-10 68-76l57 0q-4 48-24 78l-6 6q-39 46-113 46-57 0-98-33-62-52-62-164z m346 0q0-70 27-117 43-72 133-72 37 0 68 13 70 32 78 125l-56 0q-16-86-90-86-28 0-47 12-55 31-55 125 0 43 12 76 23 69 90 69l17-2q59-10 67-76l58 0q-4 48-23 78l-6 6q-41 46-113 46-57 0-98-33-62-52-62-164z" horiz-adv-x="1000" />
<glyph glyph-name="css" unicode="&#xe8f1;" d="m0 57l0 774 1000 0 0-774-500-187z m109 336q0-57 35-94t96-37q119 0 121 108l-76 0q0-45-47-47-23 0-35 16t-12 42q0 49 12 67 20 25 55 11 25-9 25-44l78 0q0 52-33 80t-88 29q-56 0-94-35t-37-96z m284-41q0-88 125-90 109 0 111 88-2 57-76 72-2 0-17 3t-25 5-21 8-10 14q0 15 34 17 31 0 33-25l0-2 74 0 0 4q0 39-33 58t-78 20q-110 0-113-80 0-59 74-76 4-2 18-5t26-5 20-8 10-14q0-15-35-15-41 0-41 31l-76 0z m265 0q0-88 125-90 110 0 112 88 0 18-8 29-16 30-69 43-2 0-17 3t-26 5-19 8-12 14q2 15 35 17 33 0 32-27l76 0q0 41-33 61t-79 21q-109 0-113-80 0-59 74-76 4-2 19-5l24-5t21-8 11-14q0-19-53-15-24 6-24 31l-76 0z" horiz-adv-x="1000" />
<glyph glyph-name="delicious" unicode="&#xe8f2;" d="m0 350l0 500 500 0 0-500 500 0 0-500-500 0 0 500-500 0z" horiz-adv-x="1000" />
<glyph glyph-name="deviantart" unicode="&#xe8f3;" d="m0 143q2 49 19 94t52 92 112 81 178 47l2-43q-93-13-138-64t-65-133l207 0-6 340 114 0 0-84q248 4 386-79t135-251l-471 0 2 230q63 4 106-7l0-145 211-2q-12 49-34 87t-51 60-64 36-72 18-75 7-73-1l0-283-475 0z" horiz-adv-x="996" />
<glyph glyph-name="digg" unicode="&#xe8f4;" d="m0 346l0 250 63 0 0 61 64 0 0 64 184 0 0-64-184 0 0-61-64 0 0-250 310 0 0 250-62 0 0 61 62 0 0-61 127 0 0 188 373 0 0-188 127 0 0-314-64 0 0-366-498 0 0 366-188 0 0-121 61 0 0-63-184 0 0 63 59 0 0 121-123 0 0 64-63 0z m63-430l0 182 64 0 0-119 184 0 0 119 62 0 0-182-310 0z m375 430l62 0 0-367 188 0 0 182 62 0 0-182 121 0 0 367 65 0 0 191-63 0 0-125-373 0 0 125-62 0 0-191z m126 129l245 0 0 246-245 0 0-246z" horiz-adv-x="1000" />
<glyph glyph-name="dribbble" unicode="&#xe8f5;" d="m0 350q0 207 147 354t353 146 354-146 146-354-146-354-354-146-353 146-147 354z m72 0q0-164 110-287 52 100 145 166t220 123l-18 35-17 35q-207-58-440-60l0-12z m10 86q195 2 395 53-38 66-159 248-91-43-154-122t-82-179z m156-424q116-90 262-90 88 0 168 33-33 174-92 325-219-72-338-268z m160 754q90-119 163-252 150 61 222 156-121 108-283 108-51 0-102-12z m194-314q4-10 13-28t14-31 12-25q146 15 297-16-2 152-96 268-88-108-240-168z m62-153q39-99 84-304 155 105 184 287-92 25-184 25-45-2-84-8z" horiz-adv-x="1000" />
<glyph glyph-name="facebook" unicode="&#xe8f6;" d="m0-150l0 1000 1000 0 0-1000-1000 0z m471 469l92 0 0-352 132 0 0 352 129 0 6 127-135 0 0 94q0 31 12 43t41 13l80 0 2 117q-59 6-88 6l-23 0q-31 0-57-10-99-39-99-154l0-109-92 0 0-127z" horiz-adv-x="1000" />
<glyph glyph-name="flickr" unicode="&#xe8f7;" d="m0-150l0 1000 1000 0 0-1000-1000 0z m107 500q0-78 55-134t133-55 134 55 55 134-55 133-134 55-133-55-55-133z m409 0q0-78 55-134t134-55 133 55 55 134-55 133-133 55-134-55-55-133z" horiz-adv-x="1000" />
<glyph glyph-name="foursquare" unicode="&#xe8f8;" d="m0-150l0 1000 842 0-229-312-68 66q-35 31-66 0l-18-16q-4 6-9 13t-11 13q-64 70-152 72-76-2-131-49-62-58-70-138-4-86 47-147 60-64 138-70l206-203q35-32 66 0l230 230q32 33 0 65l225 189 0-713-1000 0z m127 633q0 66 47 114t114 48 114-48 47-114q0-31-11-61l0-4q25-35 41-54 15-22 17-24 4-6 12-6t12 8l371 508 109 0 0-234-482-408q-4-2-10-2l-2 0q-4 0-8 2l-152 125-2 0q-28-10-57-10-66 0-113 47t-47 113z" horiz-adv-x="1000" />
<glyph glyph-name="friendfeed" unicode="&#xe8f9;" d="m0 467q2 50 15 78t27 34 40 9q18 230 276 254 95 7 205-32 66 36 148 36 33 0 125-14 61-16 86-41t24-68l3-90q-3-30-11-48t-23-28-21-11-27-7q2-2 9-5t10-6 7-13 6-25l0-111q-10-28-28-43t-31-20-37-8l-43 4-4-369q0-13-3-23t-6-18-9-13-11-9-14-7-13-5-14-4-14-3l-166 0q-74 2-84 96-29-111-107-102l-143 2q-19 2-35 6t-24 12-16 13-10 16-4 17-3 18-2 18l-2 355q-25 8-40 19t-26 45-10 91z m98 43l2-114 74 0-6-449 153 0 0 449 199 4 0-453 152-4-2 457 137 0 0 102-137 0q2 21 0 43t1 42 10 35 25 22 48 4q69-9 98-33l2 113q-82 36-190 22-41-6-69-22t-42-31-22-46-10-48-1-55l0-50-192 2 0 76q2 18 5 28t11 24 25 17 45 5q18 2 88-23l-2 107q-78 26-119 26-6 0-22-2t-29 0q-23-4-43-10t-33-13-25-20-20-22-13-26-9-26-6-28-3-26-1-28l-1-22 2-31z" horiz-adv-x="949" />
<glyph glyph-name="friendfeed-rect" unicode="&#xe8fa;" d="m0-150l0 1000 1000 0 0-1000-1000 0z m150 582q-2-41 7-66t20-33 28-14l2-262q0-2 2-15t3-17 6-13 11-14 18-8 30-7l106-2q56-8 78 76 8-70 62-72l123 0q2 2 10 4t11 3 10 3 10 4 7 7 7 10 4 13 4 16l2 274 31-2q28 4 43 13t29 38l0 82q-2 11-4 18t-6 9-7 5-6 5q18 4 25 7t19 18 15 43l-2 67q2 58-80 82-69 9-94 9-61 0-110-27-80 29-150 23-191-17-205-187-27-2-43-20t-16-70z m71 33l60-4-2 24 2 17 0 19t2 19 4 22 7 19 10 19 13 16 20 14 25 10 33 7q7 0 19 1t16 1q31 0 90-18l2-80q-53 20-67 18-25 0-40-9t-18-19-6-27l0-57 142-1 0 38t1 41 7 35 17 34 31 22 52 15q78 12 140-16l-2-84q-23 20-72 26-23 2-37-3t-18-16-6-26-2-31 1-32l101 0 0-74-101 0 0-338-112 2 0 336-146-4 0-332-114 0 4 332-54 0z" horiz-adv-x="1000" />
<glyph glyph-name="github" unicode="&#xe8fb;" d="m0 350q0 207 147 354t353 146 354-146 146-354-146-354-354-146-353 146-147 354z m55 0q0-183 131-314t314-131 314 131 131 314-131 315-314 130-314-130-131-315z m140-107q-4 4 0 7 8 8 20 6t14-4q13-5 30-26t26-28q47-39 96-6 4 14 13 23t16 14 28 12q-65 6-105 22t-63 42q-32 35-39 92t9 103q12 30 33 53-15 49 6 112 63-4 114-43 97 25 203 2 13 9 42 24t71 17q8-22 11-51t-3-55q45-47 47-125 0-62-22-103t-76-69q-37-17-98-21 28-14 40-29t17-45l0-62t2-60q6-9 14-16t13-10 4-9-15-6q-34 0-53 24-6 10-6 23l0 94q0 16-8 22t-15 9l0-123q0-33 7-43t10-19q2-2-3-3t-16 3q-26 5-36 26t-9 44l0 121-26 0 0-121q0-23-9-45-14-27-51-29-6 2-6 4 2 2 12 19 2 4 4 16t3 27l0 123q-7-2-14-9t-7-22l0-94q0-13-6-23-17-24-53-24-13 0-15 6-2 4 1 7t8 7 8 6q8 6 12 15 6 8 3 41t-1 43q-51-17-104 18-15 16-31 45-11 21-47 51z" horiz-adv-x="1000" />
<glyph glyph-name="github-text" unicode="&#xe8fc;" d="m0-4q0 92 102 128l0 1q-38 22-38 71 0 60 36 76l0 2q-36 12-63 55-29 45-29 97 0 80 55 133 54 49 128 49 53 0 100-27 53 0 121 27l0-113q-15-6-43-12 8-26 8-47 0-70-42-122t-108-62q-45-7-45-47 0-15 15-29 18-21 55-25 156-26 156-131 0-170-203-170-84 0-137 29-68 37-68 117z m115 6q0-56 96-56 84 0 84 60 0 55-92 55-88 0-88-59z m12 424q0-76 68-76 67 0 67 76 0 33-16 55-17 25-51 25-68 0-68-80z m324 343q0 34 23 58t53 23 54-23 23-58-23-58-54-23-53 23-23 58z m14-653q4 21 4 74l0 342q0 50-4 70l125 0q-2-21-2-68l0-336q0-57 2-82l-125 0z m178 381l0 105 52 0 0 43q0 31-4 49l127 0q-2-22-2-47l0-45 94 0 0-105q-4 0-18 1t-29 1l-47 0 0-204q0-74 47-74 35 0 63 20l0-112q-41-21-98-21-80 0-111 57-22 43-22 134l0 200-15 0q-16 0-37-2z" horiz-adv-x="926" />
<glyph glyph-name="googleplus" unicode="&#xe8fd;" d="m0-150l0 125q51 59 143 76 82 12 105 12 18 0 35-2 14-12 63-45t72-55q55-47 55-95 0-10-2-16l-471 0z m0 207l0 254q90-66 203-51-27-68 2-115 14-21 29-43l-50 0q-131-4-184-45z m0 617l0 176 1000 0 0-271-184 0 0 185-80 0 0-185-185 0 0-77 185 0 0-187 80 0 0 187 184 0 0-652-443 0q19 72-6 131-26 57-84 107-28 24-102 82-39 28-39 63 2 31 41 72 57 43 82 82 35 53 35 125 0 67-31 119-19 32-56 67l87 0 82 66-306 0q-74-2-145-24t-115-66z m59-60q13 58 70 86 25 11 55 13 45 0 80-27 68-57 91-154 20-78 2-129-23-67-74-80-78-22-133 15-64 51-86 141-15 68-5 135z" horiz-adv-x="1000" />
<glyph glyph-name="instagram" unicode="&#xe8fe;" d="m0-150l0 674 270 0q-26-51-26-110 0-103 73-175t176-73 176 73 73 175q0 59-25 110l283 0 0-674-1000 0z m0 715l0 285 1000 0 0-285-311 0q-74 96-196 96t-196-96l-297 0z m49 45l35 0 0 191q-16-6-25-20t-10-33l0-138z m60 0l36 0 0 197-36 0 0-197z m59 0l35 0 0 197-35 0 0-197z m61 0l33 0 0 197-33 0 0-197z m44-197q0 91 65 156t155 64 155-64 65-156-65-154-155-63-155 63-65 154z m45 1q0-72 51-123t123-50 124 50 52 123-52 124-124 50-123-50-51-123z m422 254q0-23 18-41t43-17l94 0q23 0 41 17t17 41l0 80q0 24-17 42t-41 17l-94 0q-26 0-43-17t-18-42l0-80z" horiz-adv-x="1000" />
<glyph glyph-name="linkedin" unicode="&#xe8ff;" d="m0-150l0 1000 1000 0 0-1000-1000 0z m164 729q2-34 25-54t53-23l2 0q35 2 59 24t23 53q-2 33-25 53t-55 21q-35 0-58-22t-24-52z m8-569l144 0 0 434-144 0 0-434z m225 0l144 0 0 242q0 24 4 36 27 52 74 52 72-2 72-97l0-233 145 0 0 248q-2 98-47 149-47 47-119 49-53-2-86-26-21-15-43-47l0 61-144 0q1-18 1-70 0-90-1-364z" horiz-adv-x="1000" />
<glyph glyph-name="path" unicode="&#xe900;" d="m0 465q4 172 131 278 135 105 334 107 209-4 336-105 62-53 95-127t34-153q-4-164-125-263-127-100-330-102l0-60q-2-57-34-104t-80-70q-33-16-72-16-47 0-94 24l0 173q41-29 77-19 33 14 33 49l0 480 170 0 0-299q58 0 111 12 80 20 125 59 59 56 59 136 0 116-96 176-88 51-209 51-127-4-211-55-45-29-69-75t-25-97q8-105 47-142l-107-115q-47 46-75 121-23 78-25 136z" horiz-adv-x="930" />
<glyph glyph-name="picasa" unicode="&#xe901;" d="m0 350q2 141 76 259t196 180l189-170-443-398q-18 66-18 129z m35-184l207 186 0-426q-144 92-207 240z m260-267l0 236 654 0q-58-117-167-191t-237-86q-135-10-250 41z m29 914q94 31 176 31 107 0 205-45l0-330z m436-625l0 584q111-71 176-183t64-239q0-86-29-162l-211 0z" horiz-adv-x="1000" />
<glyph glyph-name="pinterest" unicode="&#xe902;" d="m0 350q4 213 150 356t350 144q219-4 358-149t142-351q-4-211-150-354t-350-146q-70 0-141 21 14 22 28 49 15 34 39 125 6 26 17 69 14-24 47-43 88-41 186 8 101 58 140 181 36 129-8 239t-158 160q-142 41-277-9t-187-171q-14-45-17-89t3-86 29-75 63-51q9-4 15 0 8 4 16 31t6 38q-2 3-8 13-41 67-27 140t60 124q72 64 169 70t165-53q37-42 48-103t0-116-38-105q-49-76-115-78-39 2-64 30t-14 66q3 21 23 84t22 94q-6 74-69 76-49-6-72-44t-26-87q6-57 18-78-21-88-33-141-4-14-22-84t-19-107l0-55q-139 65-219 187t-80 270z" horiz-adv-x="1000" />
<glyph glyph-name="reddit" unicode="&#xe903;" d="m0 362q0 23 9 44t24 37 36 25 46 9q43 0 74-29 59 37 135 59t162 25l80 228 196-47q9 26 33 42t53 17q39 0 67-27t28-67-28-66-66-27-67 27-28 66l-164 39-67-185q84-4 157-27t129-57q33 29 76 29 23 0 45-9t37-25 24-37 9-44q0-31-15-57t-40-41q4-17 4-35 0-60-35-116t-97-97-143-64-176-24q-92 0-174 24t-143 64-97 97-35 116q0 10 2 20 0 9 2 17-24 16-38 40t-15 56z m86-133q0-55 32-102t88-84 132-57 161-21 160 21 132 57 89 84 32 102-32 104-89 85-132 56-160 21-161-21-132-56-88-85-32-104z m199 54q0 28 22 50t50 21 50-21 21-50-21-49-50-21-50 21-22 49z m53-165q12 10 33-8 6-6 13-10t14-7 13-5 14-3 13-3 14-3 14-2 15-1 17-1q76 4 133 35 21 20 35 8 10-18-12-35-58-45-156-45-105 2-152 45-26 19-8 35z m242 166q0 29 21 50t50 20 51-20 21-50-21-50-51-21-50 21-21 50z" horiz-adv-x="1000" />
<glyph glyph-name="youtube" unicode="&#xe904;" d="m0-29l0 758 1000 0 0-758-1000 0z m355 157l350 220-350 219 0-439z" horiz-adv-x="1000" />
<glyph glyph-name="wordpress" unicode="&#xe905;" d="m0 350q4 209 151 354t349 146q207-4 353-151t147-349q-4-207-151-353t-349-147q-209 4-353 151t-147 349z m35 0q2-193 140-328t325-137q193 4 328 141t137 324q-4 193-141 328t-324 137q-193-4-329-141t-136-324z m41-30q-8 108 33 200l205-553q-109 55-173 155-57 89-65 198z m69 264q62 90 157 140t198 52q168-4 287-111-47 1-70-40-4-25-6-39t7-35 14-33 18-31l18-30q33-62 7-144l-62-219-154 459q43 4 46 4 12 4 15 14t-7 15q-6 6-11 6l-94-8-70 0q-4 0-27 4t-37 2-17-13q-3-16 14-20 33-4 47-6l68-179-93-278-157 459q43 4 49 4 18 2 16 20-4 15-20 15-70-10-136-8z m234-642l129 367 133-359q-131-45-262-8z m334 39q6 19 21 62l120 346q15 49 23 111 2 28-2 49 76-162 33-312-51-172-195-256z" horiz-adv-x="1000" />
<glyph glyph-name="w3c" unicode="&#xe906;" d="m0 84l0 766 1000 0 0-766-500-234z m84 461l63-275q3-14 17-14l47 0q14 0 18 14l23 113 21-113q4-14 18-14l49 0q14 0 17 14l61 275q2 10-3 16t-13 6l-50 0q-14 0-16-14l-23-121-26 121q-4 14-17 14l-38 0q-13 0-15-14l-26-121-25 121q-2 14-16 14l-50 0q-20 0-16-22z m344-242q37-51 103-53 45 2 76 30t32 68q-2 43-34 68 30 28 30 63-2 45-32 68t-72 24q-64 0-99-51-8-12 2-24l27-25q14-12 25 2 18 23 41 23 20 0 24-9 6-12 0-26-8-9-45-9-20 0-20-16l0-41q2-22 20-18 45 0 49-9t4-16q0-25-28-25-29 0-47 25-11 16-25 2l-29-29q-10-10-2-22z m232 108q0-73 36-117t95-44q70 0 104 75 3 19-10 23l-37 18q-6 2-14-1t-10-9q-12-29-33-29t-35 23-14 62 14 61 35 23q21-1 33-27 8-14 24-10l37 18q17 10 10 25-34 71-104 71-59 0-95-45t-36-117z" horiz-adv-x="1000" />
<glyph glyph-name="vkontakte" unicode="&#xe907;" d="m0-150l0 1000 1000 0 0-1000-1000 0z m98 701q2-27 19-66 47-100 143-236 35-40 54-57t49-39 70-28 89-5q15 2 22 3t17 8 11 24l4 51q6 21 27 19t28-16q14-23 53-58t66-33l129 6q17 0 22 16t-8 38q-30 43-104 112-35 33 14 87 35 39 73 98t24 76q-7 8-11 9t-26 1l-121 0q-19 0-24-3t-13-20l-3-6t-12-25-13-30-14-27-17-30-17-23-21-23-20-14q-10 4-16 19t-6 38 1 43 3 43 2 29q0 47-58 47-2 0-28 2t-43 1q-70 0-82-31 51-15 49-76 0-96-4-96-9-39-41-9-47 60-95 170-12 23-32 21-7 0-49 1t-62-1-29-10z" horiz-adv-x="1000" />
<glyph glyph-name="vimeo" unicode="&#xe908;" d="m0-150l0 1000 1000 0 0-1000-1000 0z m133 600q2-4 8-12t7-10q12-12 38-4 25 10 41 9t29-26q27-74 74-252 31-102 76-121 26-6 52 0t46 17q119 76 213 239 2 3 26 50t33 69 23 60 12 68-18 47q-53 41-108 27t-101-58-62-94q48 0 58-4 29-15 25-64-11-51-37-100t-58-54q-14 0-30 17-19 24-27 50t-13 71-6 55q0 2-5 31t-8 42-11 35-19 36-28 18q-66 10-156-74-37-33-74-65l0-3z" horiz-adv-x="1000" />
<glyph glyph-name="tumblr" unicode="&#xe909;" d="m0-150l0 1000 1000 0 0-1000-1000 0z m291 559l76 0 0-276q2-70 57-101 41-22 103-22 84 0 102 2 45 0 80 20l0 119q-21-14-47-24-43-15-80-5-31 7-47 19-8 8-8 12l0 256 162 0 0 113-162 0 0 168-93 0q-4-70-41-119t-102-49l0-113z" horiz-adv-x="1000" />
<glyph glyph-name="twitter" unicode="&#xe90a;" d="m0 26q162-19 305 88-67-2-117 39t-77 105q18-3 43-1 34 1 49 5-99 34-139 108-23 51-23 103 57-29 92-27-80 68-90 146-6 63 25 135 114-125 239-180 93-39 185-39-12 94 26 159 45 70 128 93 55 14 106-3t86-55q60 6 133 49-30-86-92-118 62 10 121 36-10-20-37-53t-68-57q1-10 1-17 4-110-42-233-81-201-243-302-160-90-382-69-141 16-229 88z" horiz-adv-x="1000" />
<glyph glyph-name="stumbleupon" unicode="&#xe90b;" d="m0 349q4 203 148 344t338 143q149-2 274-84l0-467q-2-26-19-41t-40-16q-25 2-42 18t-18 39l0 140q-2 122-78 149-24 10-51 10l-239 0q-68-2-111-40-47-43-47-103 0-45 20-74 31-41 90-53 9-2 37-6t41-8q25-9 25-35-2-25-29-33-20-4-72-4l-211 0q-16 65-16 121z m53-220l213 0q70 2 120 41t50 101q0 78-55 111-26 16-102 30-2 0-7 1t-8 2-8 2-9 2-7 3-6 4-4 5-4 6-1 8q2 43 70 43l146 0q41-2 61-10 29-14 29-41l0-146q4-78 53-121 49-39 117-41 72 2 117 41 51 46 51 121l0 357q80-107 98-238t-33-248q-61-135-183-216t-265-81q-138 2-255 73t-178 191z" horiz-adv-x="971" />
<glyph glyph-name="stackoverflow" unicode="&#xe90c;" d="m0-150l0 395 64 0 0-329 493 0 0 329 66 0 0-395-623 0z m113 133l0 80 395 0 0-80-395 0z m2 146l6 80 393-27-6-80z m16 176l19 78 383-93-19-81z m62 205l41 71 340-200-41-70z m182 213l66 45 221-326-68-45z m250 117l82 10 47-391-80-9z" horiz-adv-x="754" />
<glyph glyph-name="slideshare" unicode="&#xe90d;" d="m2 374q16 11 43-6l0 482 893 0 0-482q16 11 33 11t16-13q-6-18-21-37t-29-34-43-30-42-24-46-24-38-17q25-82 18-162-10-77-56-129t-120-55q-57 0-90 47-10 15-10 37l0 197q-6 0-19 5t-16 5l0-211q0-35-31-60t-69-24q-72 0-119 55t-56 131q-8 82 17 160-119 53-205 138-17 32-10 40z m94-40q8-3 25-12t26-13l699 8q29 14 39 19l0 461-789 0 0-463z m143 100q0 49 35 84t84 35 83-35 34-84-34-83-83-34-84 34-35 83z m279 0q0 49 35 84t84 35 83-35 34-84-34-83-83-34-84 34-35 83z" horiz-adv-x="987" />
<glyph glyph-name="skype" unicode="&#xe90e;" d="m2 609q12 89 75 153 68 65 160 74t170-37q111 18 219-17t185-112q133-138 135-324 0-51-10-100 27-56 27-119-4-111-78-187-84-78-189-78-69 0-125 31-139-23-264 29-172 76-246 244-53 141-25 272-45 82-34 171z m211-394q4-49 35-89t71-61q166-69 308-10 57 24 91 70t34 104q2 105-105 154-47 20-90 31-15 4-56 13t-63 15q-25 8-49 24t-23 38q4 36 37 49t72 16q74 2 117-71 16-25 30-37t37-11q27 2 47 20t19 44q-4 53-42 88t-93 53q-134 33-242-8-55-20-87-62t-34-92q2-45 23-80t58-54 70-31 78-21q54-12 86-21 66-24 66-71 0-35-35-58-92-45-158-12-41 19-67 76-23 53-66 55-28-2-47-20t-22-41z" horiz-adv-x="963" />
<glyph glyph-name="picasa-1" unicode="&#xe90f;" d="m250 760q10-12 158-144l-396-362q-12 48-12 96 0 130 67 240t183 170z m400 10l0-278-328 296q64 22 138 22 98 0 190-40z m70-40q94-64 147-165t53-215q0-80-26-152l-174 0 0 532z m-686-550q12 12 66 60l102 92 0-362q-116 80-168 210z m238-250l0 198 590 0q-56-100-151-163t-209-75l-84 0q-84 10-146 40z" horiz-adv-x="920" />
<glyph glyph-name="sina-weibo" unicode="&#xe910;" d="m732 348q118-38 118-136 0-102-127-197t-313-95q-160 0-285 78t-125 196q0 130 146 280 92 92 186 129t134-3q36-36 10-116-4-14 8-14l16 2q74 34 134 34t84-34q24-36-2-100-6-18 16-24z m-322-354q122 12 202 77t72 145q-10 80-100 128t-212 36-202-77-70-145q8-80 98-128t212-36z m586 488l0-2q0-14-11-24t-25-10-24 10-10 24q0 96-68 163t-162 67q-16 0-26 10t-10 26q0 34 36 34 124 0 212-87t88-211z m-140 4q4-14-4-27t-22-15q-34-4-42 28-8 38-36 66t-66 36q-34 8-26 40 8 36 42 28 58-12 100-55t54-101z m-528-210q48 10 88-12t48-62q10-40-19-77t-79-45q-48-10-88 12t-48 62 20 76 78 46z" horiz-adv-x="996" />
<glyph glyph-name="renren" unicode="&#xe911;" d="m384 808l0-292q-2-150-77-274t-197-184q-110 130-110 296 0 170 110 298t274 156z m76-570q42-174 222-288-102-56-222-56t-220 56q178 114 220 288z m76 280l0 290q164-28 274-156t110-298q0-168-108-296-124 60-200 184t-76 276z" horiz-adv-x="920" />
<glyph glyph-name="skype-circled" unicode="&#xe912;" d="m588 358q20-12 28-30 10-20 10-44 0-32-18-56-12-22-48-40-38-14-78-14-54 0-88 20-22 12-40 36-16 26-16 46 0 14 10 24 14 10 26 10 14 0 22-8 8-4 14-22 2-6 7-15t7-11q6-8 20-16 16-6 36-6 32 0 50 12 18 14 18 32 0 16-10 24-10 10-26 16-6 2-21 5t-23 5q-20 4-66 20-20 10-42 32-16 22-16 52 0 28 18 50 16 22 48 34 30 12 72 12 34 0 56-8 20-4 42-20 18-18 24-28 6-16 6-30t-10-24-24-10q-12 0-22 6-8 8-14 20-10 18-22 28-10 10-42 10-26 0-42-10-16-12-16-24 0-10 6-16 8-8 14-10 4-2 20-8 18-6 34-10 36-8 54-14 28-10 42-20z m-108 472q200 0 340-140t140-340q0-198-140-339t-340-141q-198 0-339 141t-141 339q0 200 141 340t339 140z m116-748q58 0 100 43t42 103q0 34-16 66 6 28 6 54 0 104-72 178t-174 74q-28 0-42-2-34 22-74 22-60 0-102-43t-42-103q0-40 20-76-4-16-4-50 0-104 72-178t172-74q32 0 46 4 30-18 68-18z" horiz-adv-x="960" />
<glyph glyph-name="skype-1" unicode="&#xe913;" d="m894 250q26-58 26-118 0-108-75-185t-179-77q-62 0-120 32-52-8-80-8-182 0-311 132t-129 320q0 44 10 90-36 60-36 134 0 108 74 184t180 76q74 0 136-40 32 8 76 8 182 0 310-132t128-320q0-46-10-96z m-204-120q30 46 30 100 0 44-16 80-16 30-50 54-36 22-76 36-68 20-96 26-14 2-35 7t-27 7q-24 8-34 14-16 8-26 22-10 10-10 26 0 24 28 42 26 20 76 20t74-18q26-22 38-50 16-26 26-36 16-12 38-12 26 0 46 20 18 18 18 44 0 20-14 52-16 24-42 48-28 22-74 38-48 14-102 14-72 0-128-22-56-20-86-60t-30-92 28-90q34-40 76-56 48-22 116-36 12-2 29-7t30-8 21-5q28-10 46-28 18-14 18-42 0-34-32-56-36-24-90-24-40 0-64 12-26 14-36 28-24 44-26 46-8 24-24 40-20 14-40 14-28 0-46-18t-18-42q0-38 28-82 26-40 72-66 64-34 158-34 78 0 138 24 60 28 88 70z" horiz-adv-x="920" />
<glyph glyph-name="paypal" unicode="&#xe914;" d="m771 610l8-4q38-22 60-62 20-38 20-96 0-130-110-210-106-80-306-80l-30 0q-16 0-32-12t-20-28l-36-156q-12-42-52-42l-106 0q-18 0-28 13t-6 29l6 24 68 0q16 0 32 13t20 29l36 156q10 40 52 40l30 0q196 0 306 80 110 82 110 210 0 56-22 96z m-580-516q-2-16-18-29t-32-13l-108 0q-18 0-27 13t-5 29l150 646q10 40 52 40l224 0q78 0 126-8 56-12 94-34 36-24 58-62 20-38 20-96 0-130-110-210-106-80-304-80l-32 0q-16 0-32-12t-18-28z m88 374q-4-16 6-28t26-12l28 0q86 0 134 36 48 34 48 98 0 44-30 64-32 20-94 20l-34 0q-42 0-52-40z" horiz-adv-x="859" />
<glyph glyph-name="cc-sa" unicode="&#xe915;" d="m478 604q114 0 180-74 66-72 66-186 0-110-68-184-74-74-180-74-80 0-142 50-58 48-70 138l120 0q6-86 106-86 50 0 82 42 30 44 30 118 0 76-28 116-30 40-82 40-96 0-108-86l36 0-96-94-94 94 36 0q14 90 72 138t140 48z m2 226q200 0 340-140t140-340q0-198-140-339t-340-141q-198 0-339 141t-141 339q0 200 141 340t339 140z m0-872q162 0 277 115t115 277q0 164-115 278t-277 114-277-114-115-278q0-162 115-277t277-115z" horiz-adv-x="960" />
<glyph glyph-name="trophy" unicode="&#xe916;" d="m510 134l0-66q70-8 116-32t46-56q0-36-65-63t-157-27q-90 0-156 27t-66 63q0 32 46 56t118 32l0 66q0 50-33 84t-113 88q-56 36-87 61t-75 72-64 108-20 137q0 14 11 24t25 10l172 0q48 92 242 92 196 0 244-92l170 0q14 0 25-10t11-24q0-76-20-137t-64-108-75-72-87-61q-78-52-111-87t-33-85z m138 252q80 56 126 114t54 148l-126 0q-6-158-54-262z m-198 364q-62 0-108-15t-64-32-18-29q0-14 18-31t64-32 108-15 108 15 64 32 18 31q0 12-18 29t-64 32-108 15z m-378-102q8-90 54-148t126-114q-48 104-54 262l-126 0z" horiz-adv-x="900" />
<glyph glyph-name="flight-1" unicode="&#xe917;" d="m268-120l124 400-180 0-112-100-100 0 80 170-80 170 100 0 112-100 180 0-124 400 100 0 224-400 274 0t36-4 46-11 36-21 16-34q0-32-38-49t-74-19l-38-2-258 0-224-400-100 0z" horiz-adv-x="1000" />
<glyph glyph-name="paper-plane" unicode="&#xe918;" d="m894 720q14 4 22-3t4-19q-2-6-72-310t-74-316q-2-14-14-19t-24 1l-248 134-30 16 22 26q388 420 394 426 4 4-1 9t-9 1l-550-402-112 44-190 76q-12 4-12 12t12 12q8 4 441 157t441 155z m-582-728l0 204 160-82q-130-116-142-128-18-14-18 6z" horiz-adv-x="921" />
<glyph glyph-name="moon" unicode="&#xe919;" d="m524 238q106 106 125 252t-53 270q52-26 96-72 128-128 128-309t-128-309-310-128-310 128q-40 40-72 94 124-70 271-51t253 125z" horiz-adv-x="820" />
<glyph glyph-name="cloud-1" unicode="&#xe91a;" d="m760 494q100 0 170-68t70-166-70-166-170-68l-578 0q-74 0-128 52t-54 124q0 74 53 126t129 52q2 0 10-1t10-1q-2 12-2 38 0 108 78 184t188 76q90 0 160-52t94-134q28 4 40 4z" horiz-adv-x="1000" />
<glyph glyph-name="cloud-thunder" unicode="&#xe91b;" d="m760 494q100 0 170-68t70-166-70-166-170-68l-578 0q-74 0-128 52t-54 124q0 74 53 126t129 52q2 0 10-1t10-1q-2 12-2 38 0 108 78 184t188 76q90 0 160-52t94-134q28 4 40 4z m-192-216q14 16 14 30 0 20-30 32l-4 0q-26 14-38 16l50 116q6 0 6 20 0 14-8 18-16 10-34-8-2-2-30-32t-61-66-45-52q-12-18-12-30 0-22 30-30l4-2q8-4 38-16l-52-114-2-8q-2-8-2-14 0-10 8-18 18-10 34 10 100 100 134 148z" horiz-adv-x="1000" />
<glyph glyph-name="record-1" unicode="&#xe91c;" d="m350 700q146 0 248-102t102-248q0-144-102-247t-248-103-248 103-102 247q0 146 102 248t248 102z" horiz-adv-x="700" />
<glyph glyph-name="stop-1" unicode="&#xe91d;" d="m526 650q74 0 74-64l0-470q0-66-74-66l-450 0q-76 0-76 66l0 470q0 36 18 50t58 14l450 0z" horiz-adv-x="600" />
<glyph glyph-name="level-up" unicode="&#xe91e;" d="m200 350l0-90-200 160 200 170 0-100 550 0q40 0 70-29t30-71l0-280-140 0 0 240-510 0z" horiz-adv-x="850" />
<glyph glyph-name="level-down" unicode="&#xe91f;" d="m100 200q-42 0-71 30t-29 70l0 350 140 0 0-310 364 0 0 150 240-220-240-220 0 150-404 0z" horiz-adv-x="744" />
<glyph glyph-name="up-thin" unicode="&#xe920;" d="m500 602l-162 0 0-742-176 0 0 742-162 0 250 238z" horiz-adv-x="500" />
<glyph glyph-name="right-thin" unicode="&#xe921;" d="m742 100l0 162-742 0 0 178 742 0 0 160 238-250z" horiz-adv-x="980" />
<glyph glyph-name="left-thin" unicode="&#xe922;" d="m240 100l-240 250 240 250 0-160 740 0 0-178-740 0 0-162z" horiz-adv-x="980" />
<glyph glyph-name="down-thin" unicode="&#xe923;" d="m500 100l-250-240-250 240 162 0 0 740 176 0 0-740 162 0z" horiz-adv-x="500" />
<glyph glyph-name="up-bold" unicode="&#xe924;" d="m760 336l-192 0 0-350-376 0 0 350-192 0 380 380z" horiz-adv-x="760" />
<glyph glyph-name="right-bold" unicode="&#xe925;" d="m350 730l380-380-380-380 0 192-350 0 0 378 350 0 0 190z" horiz-adv-x="730" />
<glyph glyph-name="left-bold" unicode="&#xe926;" d="m378 730l0-190 352 0 0-378-352 0 0-192-378 380z" horiz-adv-x="730" />
<glyph glyph-name="down-bold" unicode="&#xe927;" d="m760 366l-380-380-380 380 192 0 0 350 376 0 0-350 192 0z" horiz-adv-x="760" />
<glyph glyph-name="up-dir" unicode="&#xe928;" d="m0 150l230 400 230-400-460 0z" horiz-adv-x="460" />
<glyph glyph-name="right-dir" unicode="&#xe929;" d="m0 580l400-230-400-230 0 460z" horiz-adv-x="400" />
<glyph glyph-name="left-dir" unicode="&#xe92a;" d="m400 580l0-460-400 230z" horiz-adv-x="400" />
<glyph glyph-name="down-dir" unicode="&#xe92b;" d="m460 550l-230-400-230 400 460 0z" horiz-adv-x="460" />
<glyph glyph-name="up-1" unicode="&#xe92c;" d="m660 336l-192 0 0-350-276 0 0 350-192 0 330 380z" horiz-adv-x="660" />
<glyph glyph-name="right-1" unicode="&#xe92d;" d="m350 680l380-330-380-330 0 192-350 0 0 278 350 0 0 190z" horiz-adv-x="730" />
<glyph glyph-name="left-1" unicode="&#xe92e;" d="m378 20l-378 330 378 330 0-190 352 0 0-278-352 0 0-192z" horiz-adv-x="730" />
<glyph glyph-name="down-1" unicode="&#xe92f;" d="m660 366l-330-380-330 380 192 0 0 350 276 0 0-350 192 0z" horiz-adv-x="660" />
<glyph glyph-name="up-open-big" unicode="&#xe930;" d="m804 130l-372 358-370-358q-26-22-50 0-24 24 0 50l396 390q26 26 48 0l396-390q24-26 0-50-26-22-48 0z" horiz-adv-x="864" />
<glyph glyph-name="right-open-big" unicode="&#xe931;" d="m13-20l358 370-358 372q-26 26 0 48 26 26 48 0l392-394q24-26 0-50l-392-394q-22-26-48 0-26 22 0 48z" horiz-adv-x="465" />
<glyph glyph-name="left-open-big" unicode="&#xe932;" d="m452-20q26-26 0-48-26-26-48 0l-392 394q-24 24 0 50l392 394q22 26 48 0 26-22 0-48l-358-372z" horiz-adv-x="465" />
<glyph glyph-name="down-open-big" unicode="&#xe933;" d="m63 570l370-356 372 356q22 26 48 0 26-22 0-48l-396-392q-22-22-48 0l-396 392q-26 26 0 48 24 24 50 0z" horiz-adv-x="866" />
<glyph glyph-name="up-open-mini" unicode="&#xe934;" d="m62 230q-26-22-50 0-24 24 0 50l196 190q26 26 48 0l196-190q24-26 0-50-24-22-50 0l-170 158z" horiz-adv-x="464" />
<glyph glyph-name="right-open-mini" unicode="&#xe935;" d="m13 180l158 170-158 172q-26 26 0 48 26 26 48 0l192-194q24-26 0-50l-192-194q-22-26-48 0-26 22 0 48z" horiz-adv-x="265" />
<glyph glyph-name="left-open-mini" unicode="&#xe936;" d="m252 180q26-26 0-48-26-26-48 0l-192 194q-24 24 0 50l192 194q22 26 48 0 26-22 0-48l-156-172z" horiz-adv-x="265" />
</font>
</defs>
</svg>
